<?xml version="1.0" encoding="UTF-8"?><svg id="Layer_1" xmlns="http://www.w3.org/2000/svg" viewBox="0 0 800 560"><defs><style>.cls-1{fill:#fff;}</style></defs><path class="cls-1" d="m729.52,182.39c-.11-.4-.19-.6-.22-.81-.56-3.82-.9-7.68-1.71-11.44-2.41-11.21-9.19-17.29-20.55-18.88-2.79-.39-5.55-1.1-8.32-1.68-.27-.06-.53-.22-.79-.34.29-.1.57-.25.86-.29,3.81-.54,7.7-.3,11.48-1.3,10.18-2.7,16.1-9.57,17.7-20.68.44-3.06.89-6.13,1.34-9.19.02-.15.12-.3.18-.45.05.15.12.3.16.46,1.04,3.8.85,7.78,1.65,11.61,2.69,12.98,13.23,18.64,23.76,19.21,1.78.1,3.56.04,5.31.46.22.05.42.15.63.22-.26.07-.51.14-.77.19-5.12.98-10.3,1.67-15.22,3.57-9.37,3.6-12.9,11.31-14.23,20.62-.38,2.7-.73,5.4-1.09,8.1-.02.14-.07.28-.17.62Z"/><path class="cls-1" d="m666.05,74.78c.1.35.16.56.21.78.76,3.36.78,6.83,1.63,10.19,2.24,8.89,7.89,13.9,16.67,15.48,2.64.48,5.28.98,7.91,1.49.21.04.4.16.6.24-.21.08-.42.2-.64.22-4.37.41-8.7.86-12.86,2.55-7.52,3.07-10.84,9.11-12.13,16.75-.43,2.56-.81,5.13-1.22,7.7-.04.23-.18.44-.28.66-.07-.22-.19-.43-.22-.65-.53-3.6-.82-7.26-1.6-10.8-2.12-9.61-9.01-13.76-17.83-15.43-2.15-.41-4.37-.43-6.55-.65-.25-.02-.49-.16-.74-.24.19-.11.37-.29.57-.33,3.43-.72,6.87-1.4,10.31-2.13,8.88-1.9,13.17-8.05,14.75-16.61.52-2.79.81-5.63,1.22-8.45.03-.21.11-.42.2-.76Z"/><path class="cls-1" d="m699.47,245.22c-.13-.52-.23-.75-.24-.98-.25-5.05-1-9.92-3.72-14.35-3.12-5.09-8.18-6.49-13.39-7.72-1.75-.41-3.52-.75-5.28-1.14-.16-.04-.29-.21-.44-.33.18-.07.35-.18.53-.2,2.5-.27,5.03-.38,7.49-.82,8.01-1.44,12.55-6.55,14.22-15.94.34-1.89.42-3.83.62-5.75.02-.17.05-.34.08-.51.07.17.17.33.21.5.61,3.23,1.08,6.49,1.84,9.69,1.78,7.45,7.1,10.89,14.01,12.41,2.25.49,4.53.21,6.79.31.2,0,.39.08.59.12-.18.12-.34.27-.53.37-1.97.95-4.16.99-6.25,1.48-10.48,2.45-14.63,7.35-15.57,18.42-.1,1.18-.28,2.36-.46,3.53-.03.23-.23.44-.5.92Z"/><path class="cls-1" d="m57.56,483.14H1.56c-1.53-2.43-.95-4.82-.96-7.09-.03-103.57,0-207.13-.1-310.7,0-4.27,1.16-7.69,3.66-11.09,8.02-10.92,15.94-21.91,23.59-33.09,2.4-3.51,4.95-4.91,9.27-4.88,26.05.21,52.1.1,78.15.1,152.49,0,304.98.03,457.47-.14,5.46,0,8.15,1.76,10.69,6.46,28.08,51.91,56.5,103.63,84.51,155.58,2.99,5.54,6.55,7.81,12.59,8.32,22.34,1.91,44.65,4.24,66.98,6.34,1.97.19,3.68.71,5.29,1.83,14.46,9.97,28.92,19.96,43.45,29.82,2.35,1.59,3.36,3.32,3.35,6.21-.08,49.77-.07,99.54-.1,149.31,0,.81-.21,1.63-.39,2.87h-55.82c-1.52-34.97-16.2-63.25-45.37-83.28-19.75-13.56-41.91-18.93-65.7-16.67-25.71,2.45-47.45,13.45-64.93,32.41-17.48,18.94-25.97,41.74-26.93,67.65h-278.57c-9.71-64.82-44.56-101.94-112.76-99.75-25.7.82-47.34,13.41-64.76,32.49-17.27,18.91-25.62,41.51-26.61,67.3Zm-11.47-323.49c-1.39,2.09-1.21,3.61-1.21,5.07-.01,43.17.05,86.35-.1,129.52-.02,4.84,1.68,6.08,6.28,6.07,51.85-.13,103.7-.08,155.55-.1,1.86,0,3.84.39,5.42-.97v-139.58H46.08Zm573.67,140.16c.25-8.79.86-16.47-3.69-24.36-21.1-36.63-41.65-73.57-62.22-110.5-2.2-3.96-4.55-5.73-9.29-5.69-30.05.23-60.1.11-90.15.14-2.06,0-4.23-.5-6.53.97v139.43h171.88Zm-358.94-140.12v140.16c2.05.15,3.51.35,4.96.35,42.77.02,85.54-.04,128.31.11,4.72.02,6.2-1.44,6.19-6.17-.15-42.98-.08-85.96-.11-128.95,0-1.84.44-3.86-1.44-5.5h-137.91Z"/><path class="cls-1" d="m641.47,558.72c-41.96-.11-74.87-33.13-74.79-75.06.08-42.09,33.57-75.37,75.59-75.12,41.6.25,74.68,33.77,74.58,75.59-.1,41.69-33.45,74.69-75.38,74.58Z"/><path class="cls-1" d="m158.7,558.72c-41.75-.02-74.79-33.16-74.87-75.1-.08-41.53,33.44-75,75.09-75.08,44.11-.09,76.07,37.18,75.2,76.25-.91,41.18-33.57,73.96-75.41,73.94Z"/></svg>