<svg xmlns="http://www.w3.org/2000/svg" version="1.1" xmlns:xlink="http://www.w3.org/1999/xlink" xmlns:svgjs="http://svgjs.com/svgjs" width="900" height="550"><svg version="1.1" id="SvgjsSvg1000" xmlns="http://www.w3.org/2000/svg" xmlns:xlink="http://www.w3.org/1999/xlink" x="0px" y="0px" viewBox="0 0 900 550" style="enable-background:new 0 0 900 550;" xml:space="preserve">
<style type="text/css">
	.st0{fill:#551C72;}
	.st1{fill:#F6E409;}
</style>
<path class="st0" d="M267.2,283.1c9.1,2-16.2,24.2-20.2,11.1C246.6,289.7,257.1,277,267.2,283.1z"></path>
<path class="st0" d="M739.8,268.9c-2.5,6.6-38.4,32.3-44.8,28.8C698.2,292.2,732.5,267.9,739.8,268.9z"></path>
<path class="st0" d="M685,293.5c1.6-24.5,0.1-48.8-4.8-72.8c-4,1.1-6.5-2.1-6.4-4.4c0.6-10.3-5.1-19.9-2.9-30.2
	C656.3,147.6,635.7,113,605.7,84C553.9,33.7,491.6,9.2,420.1,7.1c-30.9-0.9-60.6,4.9-90,15.1c-23.8,8.2-45.5,19.4-66.1,33.5
	c-20.6,14-38.9,30.4-54.6,49.5c-10.2,12.4-19.9,25.5-28.3,39.3c-10.9,17.9-17.8,37.9-25,57.6c6.2,4.4,8.8,7.7,1.2,14.8
	c-4.7,4.5-13.3,9.2-10.8,18.8c-4.3,38-3.3,75.8,5.6,113.2c12.6,2.5,22.6-5.6,34.1-8c4.2,2.7,5.2,1.7,5.7,0.1c4,2.5,0.9,3.2-0.8,5.1
	c-9,9.9-20.3,15.3-33,18.3c0.3,1.4,0.3,2.9,0.9,4.3c9.3,24,20.9,46.5,36.5,67.2c26.4,35,58.7,62.1,98.1,81.2
	c30,14.5,61.4,22.9,94.5,25.2c36.6,2.5,71.8-3.5,106.8-14.4c37.9-11.9,71.3-30.8,100.9-56.8c26.5-23.4,48.2-50.8,63.2-82.7
	c10.1-21.5,19.5-43.5,20.7-67.8c-3.6,0.2-6,2.6-7.8,5.2c-3.8,5.2-7.1,10.6-15,6.4c-1.9-1-4.2,0.8-4.6,2.9
	c-1.8,8.5-10,10.1-15.1,15.1c-10.6,10.4-24.8,16.1-34.1,27.8c-4.4,5.6-8.6,6.3-13.7,1.3c-3.4-3.3-7.2-5.6-11.6-7.7
	c-8.7-4.2-4.1-11.9-1-17.1c8.2-13.8,18.3-26.5,26-40.5c3.8-6.9,6.5-14.4,11-21c1.1-1.6,1.6-4.6-0.4-5.3c-3.1-1-7.4-2-9.3,2
	c-2.4,5-5.2,5.4-10.8,5.2c-7.2-0.2-9.7,8.6-14.9,12.6c-2.5,27.9-14.1,52.1-30.5,74.1c-19.8,26.5-47.4,42.6-77.8,52.9
	c-32.1,10.9-65.1,11.6-98.2,1.8c-40.3-12-72-35.1-96.1-69.3c-6.8,0.2-9.7,6.1-13.2,10.2c-5.5,6.5-10.6,8-16.9,2.2
	c-4.2-3.9-8.6-6.9-14-9.3c-9.1-3.9-7.5-12.7-4.6-19.7c1.1-2.6,2.2-5.2,3.5-7.7c0.3-0.6,0.6-1.2,0.9-1.9c0.4-0.9,0.9-1.8,1.3-2.6
	s0.9-1.7,1.4-2.6c0.4-0.8,0.9-1.6,1.3-2.5c0.2-0.4,0.4-0.8,0.7-1.2c0.4-0.8,0.9-1.6,1.3-2.4c0.4-0.8,0.9-1.5,1.3-2.3
	c5-8.5,10.3-16.8,15.5-25.2c0.3-0.5,0.6-1,0.9-1.5c0.8-1.2,1.6-2.5,2.3-3.8c0.4-0.6,0.8-1.3,1.2-1.9c0.1-0.1,0.2-0.3,0.3-0.4
	c0.1-0.1,0.2-0.2,0.3-0.4c0.1-0.1,0.2-0.2,0.2-0.2c0,0,0.1-0.1,0.1-0.1c0,0,0.1-0.1,0.1-0.1c0.2-0.1,0.4-0.3,0.6-0.4
	c0.2-0.1,0.5-0.2,0.7-0.4c0.8-0.3,1.6-0.6,2.4-0.8c0.5-0.2,1.1-0.3,1.6-0.5c0,0,0,0,0.1,0c0,0,0,0,0,0c0.2-0.1,0.4-0.2,0.6-0.2
	c0,0,0,0,0,0c0.2-0.1,0.3-0.2,0.5-0.2c0,0,0,0,0.1,0c0,0,0.1,0,0.1-0.1c0.1-0.1,0.3-0.2,0.4-0.3c0.1-0.1,0.2-0.1,0.2-0.2
	c0.1-0.1,0.2-0.1,0.2-0.2c0.1-0.1,0.2-0.2,0.2-0.3s0.1-0.2,0.2-0.4c0-0.1,0.1-0.2,0.1-0.3c0-0.1,0.1-0.2,0.1-0.3
	c0-0.2,0.1-0.3,0.1-0.5c0-0.2,0-0.3,0-0.5c0,0,0,0,0-0.1c0-0.7-0.1-1.5-0.4-2.4c-1.2,0.2-2.4,0.5-3.6,0.7c-0.4,1.6-1.6,2-3,1.9
	c-1.7,2-3.2,4.2-5.1,6c-3.3,3.3-6.3,4.4-7.3-1.8l0,0c-0.1-0.1-0.3-0.1-0.4-0.2c-0.3-0.1-0.6-0.2-0.9-0.3l0,0
	c-0.3-0.1-0.5-0.2-0.8-0.3c-0.1,0-0.2,0-0.3-0.1c-0.2,0-0.4-0.1-0.5-0.1c-0.6-0.1-1.2,0-1.7,0.2c-0.4,0.1-0.7,0.4-1.1,0.8
	c-6.4,7.3-18.8,4.1-23.8,13.9c-1.4,2.8-3.4,2-5.5,0.2c-2.3-2.1-2.3-4,0.3-5.3c8.4-4.3,14.7-12,24.4-14c5.2-1.1,7.2-5.8,10.5-9.1
	c-3.9-14.1-1.1-28.3,2.1-41.7c8.2-35.1,25.5-65.6,52.8-89.8c27.6-24.4,59.4-38.5,96.7-37.8c13.5,0.2,27-1.8,40.5,1.4
	c33.5,8,63.2,22.6,88.5,46.6c9.1,8.6,11.7,13.6,3,25.4c-14.5,19.8-25.4,42.1-38.2,63.2c-4.2,6.9-9.6,12.9-14.5,19.3
	c11.7,3.2,16.9-6.8,20.8-13.2c13.4-21.4,24.4-44.3,38.7-65.2c2.2-3.2,2.7-7,4.9-10.4c2.5-3.8,3.3-9.4,8.8-7.6
	c5.2,1.8,13.1,2.4,11.5,11.6c-0.4,2.7,1.1,4.4,3.3,2c6.4-7,10.6,0.2,13.4,3.1c3.2,3.3-0.1,7.4-3.2,11.2c-4,5-9.2,8.7-13.1,13.7
	c5.1,3.1,5.9,8.1,5.5,13.5c8.2-1.6,15.7-5.2,22.5-9.5c7.5-4.7,15.4-7.3,23.9-8c5.6-0.4,7.7,4,8.1,9.4c0.4,4.9-0.7,7.7-6.3,6.9
	c-3.4-0.5-6.1,0.9-9.2,2.6c-7.9,4.2-15.2,10-25.1,9.9c-2.8,0-6.9,2.7-7.9,6.9c5.2,15.9,6.8,32.2,5,48.8
	c16.3-9.1,32.9-17.7,48.8-27.5c6-3.7,9.7-1.9,14.7,1.1c4.9,3,1.9,6.3,1.4,9.7c-0.8,5.4-3.8,9.6-6.7,14c-1.6,2.4-2.9,6.6,0.1,7.9
	c2.9,1.3,1.7-3.2,2.9-4.9c4.1-5.8,7.6-12,11.5-18c2.6-4,4.6-0.2,6.7,0.7c3.6,1.6,2.8,4.4,0.8,6.6c-8.6,9.3-13.3,21.2-22.5,30.5
	c-7.4,7.5-12.1,18.8-18,28.4c-1.5,2.3-0.9,6.1,3.3,4.2c16.3-7.1,33.1-14,46.1-26c4.6-4.3,8.6-8.3,14.4-10.5c0.1-0.3,0.3-0.5,0.6-0.6
	c0.6-1.5,1.2-3.1,1.7-4.6C683.2,299.7,684.8,296.3,685,293.5L685,293.5z M210.4,335.8c-2.7,2.3-5.3,5.9-9.9,6.3
	c-2.4,0.2-5.1-0.5-4.5-3.5c1.2-5.7,6.7-5,10.8-5.9C208.4,332.2,210.5,332.2,210.4,335.8z"></path>
<path class="st1" d="M191.9,341.1c4,2.5,0.9,3.2-0.8,5.1c-9,9.9-20.3,15.3-33,18.3c-2.6,0.5-6.1,0.1-7.7,1.7
	c-10.4,9.8-25,11.4-36.5,19.2c-8.2,5.6-19.7,4.7-28.9,10.2c-7.2,4.2-16.7,4.6-24,8.6c-6.3,3.5-12.6,5.4-19.4,6.4
	c-3.6-9.7-18.7-15-11-29.2c0.9-1.7-0.6-3.9-3.4-2.6c-2.2,1-4.5,2-6.7,3c-2.4-0.7-4.8-1.6-7.2,0.2c-0.4-2.8-0.7-5.5,0.8-8.1
	c9-15.8,16.8-32.6,27.2-47.4c17.7-25,30-53.2,47.8-78.1c8.2-11.5,14.1-24.7,20.5-37.3c3.8-7.4,10.7-13.1,12.1-21.8
	c4.4-6.7,8.5-6.8,13.9-0.5c5.4,6.4,13.4,9.5,20.7,13.3c6.2,4.4,8.7,7.7,1.2,14.8c-4.7,4.5-13.3,9.2-10.8,18.8
	c-3.3-0.6-4.8,1.7-6.6,3.8c-16.3,19.2-26.3,42.4-40.8,62.7c-10.3,14.5-18.6,30.4-27.2,46c-2.2,4-8.1,8.8-5.2,12.6
	c2.4,3.2,9.7,4.9,14.1,4c13.5-2.6,27.8-0.4,40.6-6.7c9.7-4.8,21.3-3.2,30.6-9.2c12.6,2.5,22.7-5.6,34.1-8
	C188.2,341,190,341.1,191.9,341.1L191.9,341.1z M103.2,254.7c-0.7-0.6-1.5-1.8-2.4-1.9c-4.1-0.5-5.4,3.6-6.7,5.7
	c-1.7,2.8-5.9,5.4-3.6,9.7c0.2,0.4,1.9,0.5,2.4,0.1C97.5,264.9,100.1,260,103.2,254.7L103.2,254.7z M150.3,215
	c0.1-2.3-0.4-3.9-2.4-3.4c-4.4,1.1-6.9,4.4-8,8.5c-0.3,1.2,1.3,2.9,2,4.4C144.9,221.2,147.8,217.9,150.3,215L150.3,215z"></path>
<path class="st1" d="M685.4,306.1c0.6-1.5,1.2-3.1,1.7-4.6c2.6-1.2,5.2-2.5,7.8-3.7c6.1-0.8,11.8-2.5,14.3-9c5-5.6,12-7.7,18.4-10.8
	c1.9,1.4,2.6,0,3.2-1.5l-0.1,0.1c0.8-0.4,1.7-0.8,2.5-1.2c1.3-1.2,2.5-2.4,3.8-3.5c7.2-2.5,13.6-6.2,18.9-11.7
	c10.3-4,28.8,2.9,33.3,12c1.3,2.8-1,3.4-2,4.9c-2.7,4.2-8.3,6.9-6.8,13.3c-3,3.5-6.1,6.9-9.1,10.4c-0.7,0.9-1.4,1.8-2,2.7
	c1.3,0.4,2.8,1.3,3.9,1c9.6-2.8,13.2-12.1,19.4-18.6c2.2-1.6,4.4-3.2,6.6-4.7c8.8-2.5,16.2-7.6,23-13.5c7.7-4,15.3-11.1,23.7-1.1
	c4.8,5.6,15.5,6.9,16.3,13.8c0.7,6.5-8,12.5-12.8,16.2c-9.4,7.1-8.2,20.6-19.8,26.4c-4.1,2-5.7,12.6-8.9,19
	c-0.4,0.8,0.2,2.3,0.8,3.2c1.2,1.6,2.6,0.7,3.9-0.1c8.8-5.7,19.6-7.5,27.7-14.8c3.8-3.4,10.7-1.8,14-6.9c3.8-0.4,8.1,0,9-5.3
	c5.9-4.3,12.8-6.3,19.8-7.8c1.1-0.2,2.3,0.4,3.5,0.7c-0.3,0.6-0.4,1.5-0.8,1.7c-11.3,5.2-20.8,13.6-32.2,19.1
	c-4.7,2.2-12,6.7-13.8,11.5c-3.3,8.9-10,8.2-16.5,10.6c-12.3,4.5-22.4,12.8-30,23.2c-4.2,5.6-8,8-14.5,7.1
	c-5.1-4.7-10.5-9.1-17-11.8c-5.7-2.4-5.4-8.3-3.1-10.6c17.1-17.3,26.7-39.3,38.7-59.8c1.4-2.4,6.3-6.5,3.1-8.7
	c-3-2.1-7.5,1.4-11,3.7c-8.9,1-13.5,8.7-19.3,13.7c-5,4.4-8,9.9-15.6,12.1c-5.7,1.6-11.1,7.8-14.3,13.2
	c-6.8,11.7-17.8,19.8-25.2,30.9c-0.5,0.8-1.7,1.4-2,2.2c-2.4,8-7.2,12.6-16,12.1c-4.6-4.1-4.9-9-1.9-14c1.5-2.5,1-4.2-1.2-5.6
	c-2.8-1.8-3.1,1.5-4.2,2.6c-2.9,3-3.5,7.8-7.8,9.7c-1.6-1-3.2-2.1-4.8-3.1c-0.4-2-0.1-3.8,1.3-5.6c17.7-23,32.2-48.1,48.4-72.1
	c2.4-3.6,5-7,7.6-10.5c-4,1.6-8.1,3.2-12.1,4.8c-0.5,0.1-0.9,0.2-1.4,0.2h0.3c-10.8,9.7-25.8,10.6-37.7,17.9
	C692.6,307.7,688.9,303.3,685.4,306.1L685.4,306.1z M801.1,341.1c3.5-2.7,6.2-6.6,7.9-11c0.5-1.3,0.3-3.5-1.8-3.1
	c-6.1,1-5.6,7.8-9.3,11.1C797.1,338.8,798.8,340.6,801.1,341.1L801.1,341.1z M797.3,347.7c-0.5-0.9,0.5-2.9-1.9-1.8
	c-2.2,1.1-4.8,1.6-5.1,4.6c-0.2,1.8,0.6,2.9,2.5,2.7C796.4,353,796.5,350.1,797.3,347.7L797.3,347.7z"></path>
<path class="st1" d="M679.7,320.6c-3.6,0.2-6,2.6-7.8,5.2c-3.8,5.2-7.1,10.6-15,6.4c-1.9-1-4.2,0.8-4.6,2.9
	c-1.8,8.5-10,10.1-15.1,15.1c-10.6,10.4-24.8,16.1-34.1,27.8c-4.4,5.6-8.6,6.3-13.7,1.3c-3.4-3.3-7.2-5.6-11.6-7.7
	c-8.7-4.2-4.1-11.9-1-17.1c8.2-13.8,18.3-26.5,26-40.5c3.8-6.9,6.5-14.4,11-21c1.1-1.6,1.6-4.6-0.4-5.3c-3.1-1-7.4-2-9.3,2
	c-2.4,5-5.2,5.4-10.8,5.2c-7.2-0.2-9.7,8.6-14.9,12.7c-3.8-1.8-5.3,1-7.9,3c-6.2,4.7-11,12.8-20.8,10.1c-1.8-3.7,0.1-5.4,3-7.6
	c5.9-4.5,13.6-7.3,16.4-15.2c3.2-4.1,10.1-2.1,12.5-7.6c16.3-9.1,32.9-17.7,48.8-27.5c6-3.7,9.7-1.9,14.7,1.1c4.9,3,1.9,6.3,1.4,9.7
	c-0.8,5.4-3.8,9.6-6.7,14c-1.6,2.4-2.9,6.6,0.1,7.9c2.9,1.3,1.7-3.2,2.9-4.8c4.1-5.8,7.6-12,11.5-18c2.6-4,4.6-0.2,6.7,0.7
	c3.6,1.6,2.8,4.4,0.8,6.6c-8.6,9.3-13.3,21.2-22.5,30.5c-7.4,7.5-12.1,18.8-18,28.4c-1.5,2.4-0.9,6.1,3.3,4.2
	c16.3-7.1,33.1-14,46.1-26c4.6-4.3,8.6-8.3,14.4-10.5C684.1,311.7,685.5,317.5,679.7,320.6L679.7,320.6z"></path>
<path class="st0" d="M121.6,189.3c-1.4,8.7-8.3,14.4-12.1,21.8c-6.4,12.7-12.3,25.9-20.5,37.3c-17.8,24.9-30.1,53.1-47.8,78.1
	C30.8,341.4,23,358.1,14,374c-1.5,2.6-1.2,5.3-0.8,8.1c-3.7,3.8-8.9,3.2-11.6,0.7c-2.9-2.6,1.8-5.4,3.3-8.1
	c14-24,27.5-48.3,42.3-71.9c19.8-31.6,38-64,56.2-96.5c2.2-3.8,4.3-7.7,5.9-11.8C111.6,188.2,115.3,186,121.6,189.3L121.6,189.3z"></path>
<path class="st1" d="M680.3,220.7c-4,1.1-6.5-2.1-6.4-4.4c0.6-10.3-5.1-19.9-2.9-30.2c3.6,3.9,8,1.6,11.2,0.3
	c15.6-5.9,32.8-5.1,48-12.2c1.4-0.6,4.1-0.6,5,0.4c2.2,2.3-1.2,2.4-2,3.6c-1.7,2.5-0.5,2.9,1.8,3.2c1.7,0.2,4.8-1.1,4.5,2.1
	c-0.2,2-2.4,3.5-4.9,4.1c-3.1,0.7-6.1,1.8-9.1,3.1c-1.2,0.5-3.1,2.1-2.9,2.8c4,15.5-11.2,9.9-16.7,14.8c-3.4,3-10.3,2.4-13.2,5.7
	C689.1,218.1,684.8,219.1,680.3,220.7L680.3,220.7z"></path>
<path class="st0" d="M802.4,296.6c3.4-2.3,8-5.8,11-3.7c3.2,2.3-1.7,6.3-3.1,8.7c-12,20.5-21.7,42.5-38.7,59.8
	c-2.3,2.3-2.6,8.3,3.1,10.6c6.5,2.7,11.8,7.1,17,11.8c-3.2,5.3-7.3,5-11.9,1.9c-4.8-3.3-9.6-6.6-14.5-9.7c-6.3-4-4.9-8.5-1.4-13.4
	c14.4-20.1,28-40.7,38.5-63.2C802.6,298.7,802.4,297.6,802.4,296.6L802.4,296.6z"></path>
<path class="st0" d="M735.3,287.1c4-1.6,8.1-3.2,12.1-4.8c-2.5,3.5-5.2,6.9-7.6,10.5c-16.2,24-30.7,49.1-48.4,72.1
	c-1.4,1.8-1.7,3.5-1.3,5.6c-1.4,1.5-2.7,2.9-4.1,4.3c-1.6,1.7-3.5,2.2-5.2,0.4c-1.8-1.9-1.3-3.6,0.1-5.9
	c16.4-24.8,32.6-49.6,48.7-74.6c1.5-2.4,4.9-3.8,4.5-7.4h-0.3l0.7,0.1L735.3,287.1L735.3,287.1z"></path>
<path class="st0" d="M20.3,381.8c2.2-1,4.5-1.9,6.7-3c2.9-1.3,4.4,0.9,3.4,2.6c-7.8,14.2,7.4,19.5,11,29.2
	c-5.2,3.4-9.6,2.4-13.7-2.1C20.7,400.9,14.1,393.2,20.3,381.8z"></path>
<path class="st0" d="M694.9,373.5c4.3-1.9,4.9-6.7,7.8-9.7c1.1-1.1,1.3-4.4,4.2-2.6c2.2,1.4,2.7,3.1,1.2,5.6c-3,5-2.7,9.9,1.9,14
	c-1.7,2.4-3.3,5.9-6.7,3.9C699.1,382.3,693.2,380.6,694.9,373.5L694.9,373.5z"></path>
<path class="st0" d="M792.7,285.8c-6.2,6.5-9.8,15.7-19.4,18.6c-1.1,0.3-2.6-0.6-3.9-1c0.7-0.9,1.3-1.8,2-2.7c3-3.5,6.1-7,9.1-10.4
	C784.6,288.8,788.6,287.3,792.7,285.8L792.7,285.8z"></path>
<path class="st0" d="M822.2,267.5c-6.8,5.9-14.2,11-23,13.5c5.9-6.9,12.6-12.3,22-13.3c0.5,0,0.9-0.3,1.4-0.5
	C822.5,267.4,822.4,267.4,822.2,267.5L822.2,267.5z"></path>
<path class="st0" d="M756.1,260.1c-5.3,5.5-11.7,9.2-18.9,11.7C740.9,263.8,748.7,262.2,756.1,260.1z"></path>
<path class="st1" d="M383.4,323.7c8.6-4.7,17.2-9.4,25.8-14.1c5.9,3.7,7.7-2.7,11-4.9c5.3-3.5,11.5-6,15.4-11.3
	c1.8-1.7,3.6-3.5,5.4-5.2c3.3-0.2,7.5,2.9,9.6-2.4c1.3-1.8,2.7-3.5,4-5.3c1.8-0.3,3.6-0.5,5.4-0.8c6.6-5,13.3-10.1,19.9-15.1
	c11.7,3.2,16.8-6.8,20.8-13.2c13.4-21.4,24.4-44.3,38.7-65.2c2.2-3.2,2.7-7,4.9-10.4c2.5-3.8,3.3-9.4,8.8-7.6
	c5.2,1.7,13.1,2.4,11.6,11.6c-0.5,2.7,1.1,4.4,3.3,2c6.4-7,10.6,0.2,13.4,3.1c3.2,3.3-0.1,7.4-3.2,11.2c-4,5-9.2,8.7-13.1,13.7
	c-6.3,2.1-2.2,9.7-7,12.9c-1.3,0.9-1.4,3.5-2.1,5.3c1.8,0,3.7,0,5.5,0c0.6-0.6,4.3,1.2,5.7-1.4c1.1-1.1,2.2-2.2,3.4-3.3
	c8.2-1.6,15.7-5.2,22.5-9.5c7.5-4.7,15.4-7.3,23.9-8c5.6-0.5,7.7,4,8.1,9.4c0.4,4.9-0.7,7.7-6.3,6.9c-3.4-0.5-6,0.9-9.2,2.6
	c-7.9,4.2-15.2,9.9-25.1,9.9c-2.8,0-6.9,2.7-7.9,6.9c-2.3-1.1-4.1-1.2-6.8,0c-9.4,4.2-18.6,9.2-28.9,11.2c-5,0.9-7.6,4.7-9.4,9.5
	c-4.3,11.5-11.5,21.5-18,31.9c-4.1,6.5-8.9,12.3-13.1,18.5c-5.3,7.8-7.8,17.4-11.4,26.2c-0.6,1.5-3.8,2.9-0.9,4.9
	c1.7,1.2,3.6,1,5.6,0c8.5-4.5,17.2-8.8,25.8-13.2c2.4-1.4,7.4,3.6,7.7-3.1c2.2-1.7,4.3-3.5,6.5-5.2c4.5,2.5,9.2,3,14,1.4
	c-0.3,2.1-0.4,6-1.1,6.1c-8.2,1.4-12.7,11.2-22,9.9c-1.1,0.9-4,0.3-2.8,3.2c-2.2,4.5-5.9,6.8-10.8,8.1c-5.7,1.6-11.9,3.5-16.2,7.2
	c-10.8,9.5-22.7,17-35.9,22.7c-3.3-2.5-6.3-5.6-10-7.4c-13.7-6.6-14.9-12.5-4.7-24.4c1.4-1.7,2.7-3.6,3.8-5.5
	c10.4-18.7,20.9-37.3,31.1-56.1c1.1-2.1,4.9-4.2,2.2-6.9c-2.4-2.4-5.4,0.7-8.2,1.1c-1.5,0.2-2.7,2.5-4,3.8c-8.5,7-19.7,7.9-29.1,14
	c-10.9,7-22,14.6-33.7,20.5c-5.3,2.7-8.9,7.5-13.4,10.3c-7.8,4.9-16,9.5-24.4,13.5c-6.7,3.1-8.3,11.7-13.3,13.2
	c-11.3,3.5-16.7,13.1-23,20.6c-5.1,6-7.3,5.2-11.9,2c-15.5-4.5-19-12.3-12.1-26.2c0-0.4,0.3-0.6,0.7-0.6c0.4-4.4,4.4-2,6.5-3.5
	c4.7-3.5-0.2-7.5,0.6-11.3c0.5-2.1-3.1-1.1-4.1-0.4c-3.1,2.5-5.9,5.4-8.9,8.1c-1.6,1.2-3.4,2.4-4.9,3.5c-7.7,5.6-17.7,8.5-22.4,17.7
	c-6.8,0.2-9.7,6.1-13.2,10.2c-5.5,6.5-10.6,8-16.9,2.2c-4.2-3.9-8.6-6.9-14-9.3c-9.1-3.9-7.6-12.7-4.6-19.7
	c8.3-19.7,20.7-37.2,31.7-55.5c2.5-4.3,11.5-1.4,9.1-9.4c-1.7-2.2-2.9-1.7-3.6,0.7c-0.4,1.6-1.5,2-3,1.9c-0.7-1.6-1.6-2.8-3.6-1.9
	c-4.3-2.3-5.9-0.8-5.4,3.8c-1.1,0.8-2.2,1.5-3.3,2.3c-1.9-0.8-4.1-1.7-5.6,0c-6.4,7.3-18.8,4.1-23.8,13.9c-1.4,2.8-3.4,2-5.5,0.2
	c-2.3-2.1-2.3-4,0.3-5.3c8.4-4.3,14.8-12,24.4-14c5.2-1.1,7.2-5.8,10.5-9.1c8-3.6,16-7.3,24-10.9c1.3-0.3,2.6-0.6,3.9-0.9
	c4.2-1.6,8.4-3.2,12.6-4.8c0.7,0.4,1.4,0.8,2.2,1.2c0.2-0.9,0.4-1.7,0.6-2.6c30-7.6,59.1-19.3,90.7-19.7c2.9,0,7.7-1.8,8.2,1.8
	c0.4,2.6-4.3,4.4-7.8,4.1c-2.5-0.2-4,1.1-4.2,3.2c-0.3,2.7,1.9,2.7,3.9,3.1c11.6,2.3,3.7,12.2,6.5,18.2c1.4,2.9-2.8,4.6-7.5,4.7
	c-4.9,0.2-10.1,3-15.6,3c-0.3,0-1,2-1,2.1c5.8,3.4,2.9,12.2,3.3,12.4c4.2,1.5,8-10.1,10.7-2.1c2.1,6.4-4.2,13.9-10.3,17.5
	c-3.8,2.3-6.5,1.2-3.7,7.2c1.9,4.1-3.2,11.1-6.4,11.9c-9.7,2.5-7.2,11.9-11.9,16.9c0.1,1.5-1.2,5.5,1.7,3.6
	C360.8,340.4,372,331.9,383.4,323.7L383.4,323.7z M339.8,283c-6.1-1.1-12,2-16,4.8c-12.9,9-25.9,17.8-36.6,30
	c-8.7,9.9-15.3,20.9-23.2,31.2c-1.5,1.9-3.1,3.9-2.8,6.5c0,0,1.2,0.1,1.7-0.1c4.4-1.6,9.1-2.8,13.1-5.1
	c23.8-13.9,42.8-33.5,62.1-52.6c4-4,12.2-6.4,10.5-14.9C349.3,282.2,342.2,281.6,339.8,283L339.8,283z M520.5,242.3
	c1-0.7,2.3-1.4,3.4-2.4c6-5.3,5.3-14.6,11.7-19.8c0.5-0.4-0.4-2.8-0.9-4.1c-0.1-0.3-2-0.4-2.3,0c-4.9,6.9-9.9,13.7-14.4,20.8
	C517.3,238.2,516.8,241.5,520.5,242.3L520.5,242.3z M280.2,279.7c0.1-1.4-0.1-3.5-1.4-2.8c-2.7,1.4-4.9,3.6-7.2,5.6
	c-0.1,0.1,0.4,1.3,0.5,1.3C275,282.8,278.4,282.6,280.2,279.7L280.2,279.7z"></path>
<path class="st1" d="M210.4,335.8c-2.7,2.3-5.3,5.9-9.8,6.3c-2.4,0.2-5.1-0.5-4.5-3.5c1.2-5.7,6.6-5,10.8-5.9
	C208.4,332.2,210.6,332.2,210.4,335.8L210.4,335.8z"></path>
<path class="st0" d="M103.2,254.7c-3,5.3-5.6,10.2-10.2,13.6c-0.5,0.4-2.2,0.3-2.4-0.1c-2.3-4.3,1.9-7,3.6-9.7
	c1.2-2,2.6-6.2,6.7-5.7C101.7,252.9,102.4,254.1,103.2,254.7L103.2,254.7z"></path>
<path class="st0" d="M150.3,215c-2.6,2.9-5.5,6.2-8.4,9.5c-0.7-1.5-2.3-3.2-2-4.4c1-4.1,3.6-7.5,8-8.5
	C150,211.1,150.4,212.7,150.3,215L150.3,215z"></path>
<path class="st0" d="M801.1,341.1c-2.3-0.5-4-2.3-3.1-3c3.7-3.3,3.2-10.1,9.3-11.1c2.1-0.4,2.3,1.9,1.8,3.1
	C807.2,334.5,804.6,338.4,801.1,341.1L801.1,341.1z"></path>
<path class="st0" d="M797.3,347.7c-0.8,2.4-0.9,5.3-4.5,5.6c-1.9,0.1-2.6-0.9-2.5-2.7c0.3-3.1,2.9-3.6,5.1-4.6
	C797.8,344.8,796.8,346.8,797.3,347.7L797.3,347.7z"></path>
<path class="st0" d="M533.5,322.3c12.6-4.1,19.5-15.3,29.1-23.1c2.1-1.7,4.2-1,6.4-1.1c-2.8,7.9-10.5,10.7-16.4,15.2
	c-3,2.3-4.9,3.9-3,7.6c0,1.4-0.4,2.6-2,2.9C542.7,325.2,538,324.7,533.5,322.3L533.5,322.3z"></path>
<path class="st0" d="M383.4,323.7c-11.4,8.2-22.5,16.7-34.2,24.3c-3,1.9-1.6-2.1-1.7-3.6c10.8-6.6,21.6-13.3,32.5-19.9
	C380.9,324,382.2,324,383.4,323.7L383.4,323.7z"></path>
<path class="st0" d="M435.5,293.4c-4,5.3-10.1,7.8-15.4,11.3c-3.3,2.1-5,8.6-11,4.9c6.5-5.6,13-11.3,19.7-16.7
	C431,291.1,433.4,291.6,435.5,293.4L435.5,293.4z"></path>
<path class="st0" d="M450.5,285.9c-2.1,5.3-6.2,2.2-9.6,2.4C443.4,284.8,447.2,286.1,450.5,285.9z"></path>
<path class="st0" d="M458.9,381c-5.1,4.9-9.8,3.9-14.6-0.5c-1.2-1.1-2.9-1.9-4.3-2.7c-17.3-10.1-16-9.6-5-26.9
	c12.9-20,23.1-41.8,34.4-62.8c0.3-0.5-0.1-1.5-0.2-2.2c1.3-1.3,2.5-3.5,4-3.8c2.8-0.5,5.8-3.5,8.2-1.1c2.7,2.7-1.1,4.8-2.2,6.9
	c-10.2,18.8-20.7,37.5-31.1,56.1c-1.1,1.9-2.4,3.8-3.8,5.5c-10.2,11.9-9,17.7,4.7,24.4C452.6,375.4,455.6,378.5,458.9,381L458.9,381
	z"></path>
<path class="st0" d="M263.9,348.9c3.4,2.2,5.5,1.5,9.4-1c19.1-12.4,34.8-28.7,51.1-44c6.2-5.8,14.4-10.9,15.3-20.9
	c2.5-1.4,4-5.4,7.9-3c0.3,0.9,0.6,1.9,0.9,2.8c1.7,8.5-6.4,10.9-10.5,14.9c-19.3,19.1-38.4,38.7-62.1,52.6c-4,2.3-8.7,3.5-13.1,5.1
	c-0.5,0.2-1.7,0.2-1.7,0.1C260.8,352.7,262.4,350.8,263.9,348.9L263.9,348.9z"></path>
<path class="st0" d="M320.4,379.7c-0.8,5.3-3.3,7.1-8.2,4.1c-6.6-4-13.3-7.9-20-11.9c-1.5-0.9-2.3-2-1.3-4.2
	c3.4-7.8,6-16.3,17.4-14.2C301.3,367.5,304.9,375.2,320.4,379.7L320.4,379.7z"></path>
<path class="st0" d="M520.5,242.3c-3.8-0.8-3.3-4.1-2.5-5.4c4.5-7.1,9.5-14,14.4-20.8c0.3-0.4,2.2-0.3,2.3,0
	c0.5,1.3,1.4,3.6,0.9,4.1c-6.4,5.2-5.7,14.5-11.7,19.8C522.9,240.9,521.6,241.6,520.5,242.3L520.5,242.3z"></path>
<path class="st0" d="M308.9,353c-2-2.3-4-4.7-5.9-7c2.9-2.8,5.7-5.7,8.9-8.1c1-0.8,4.6-1.7,4.1,0.4c-0.8,3.8,4.1,7.7-0.6,11.3
	C313.3,351,309.3,348.6,308.9,353L308.9,353z"></path>
<path class="st0" d="M280.2,279.7c-1.9,2.9-5.2,3.1-8.1,4.1c0,0-0.6-1.2-0.5-1.3c2.3-2,4.5-4.2,7.2-5.6
	C280.1,276.2,280.4,278.2,280.2,279.7L280.2,279.7z"></path>
<path class="st0" d="M519.3,330.6c0.8-5.4,5.7-0.7,7.7-3.1C526.8,334.2,521.8,329.2,519.3,330.6z"></path>
</svg><style>@media (prefers-color-scheme: light) { :root { filter: none; } }
@media (prefers-color-scheme: dark) { :root { filter: contrast(0.3846153846153846) brightness(4.5); } }
</style></svg>