<?xml version="1.0" encoding="UTF-8"?><svg id="Layer_1" xmlns="http://www.w3.org/2000/svg" viewBox="0 0 800 560"><defs><style>.cls-1{fill:#fff;}</style></defs><path class="cls-1" d="m689.52,202.39c-.11-.4-.19-.6-.22-.81-.56-3.82-.9-7.68-1.71-11.44-2.41-11.21-9.19-17.29-20.55-18.88-2.79-.39-5.55-1.1-8.32-1.68-.27-.06-.53-.22-.79-.34.29-.1.57-.25.86-.29,3.81-.54,7.7-.3,11.48-1.3,10.18-2.7,16.1-9.57,17.7-20.68.44-3.06.89-6.13,1.34-9.19.02-.15.12-.3.18-.45.05.15.12.3.16.46,1.04,3.8.85,7.78,1.65,11.61,2.69,12.98,13.23,18.64,23.76,19.21,1.78.1,3.56.04,5.31.46.22.05.42.15.63.22-.26.07-.51.14-.77.19-5.12.98-10.3,1.67-15.22,3.57-9.37,3.6-12.9,11.31-14.23,20.62-.38,2.7-.73,5.4-1.09,8.1-.02.14-.07.28-.17.62Z"/><path class="cls-1" d="m626.05,94.78c.1.35.16.56.21.78.76,3.36.78,6.83,1.63,10.19,2.24,8.89,7.89,13.9,16.67,15.48,2.64.48,5.28.98,7.91,1.49.21.04.4.16.6.24-.21.08-.42.2-.64.22-4.37.41-8.7.86-12.86,2.55-7.52,3.07-10.84,9.11-12.13,16.75-.43,2.56-.81,5.13-1.22,7.7-.04.23-.18.44-.28.66-.07-.22-.19-.43-.22-.65-.53-3.6-.82-7.26-1.6-10.8-2.12-9.61-9.01-13.76-17.83-15.43-2.15-.41-4.37-.43-6.55-.65-.25-.02-.49-.16-.74-.24.19-.11.37-.29.57-.33,3.43-.72,6.87-1.4,10.31-2.13,8.88-1.9,13.17-8.05,14.75-16.61.52-2.79.81-5.63,1.22-8.45.03-.21.11-.42.2-.76Z"/><path class="cls-1" d="m659.47,265.22c-.13-.52-.23-.75-.24-.98-.25-5.05-1-9.92-3.72-14.35-3.12-5.09-8.18-6.49-13.39-7.72-1.75-.41-3.52-.75-5.28-1.14-.16-.04-.29-.21-.44-.33.18-.07.35-.18.53-.2,2.5-.27,5.03-.38,7.49-.82,8.01-1.44,12.55-6.55,14.22-15.94.34-1.89.42-3.83.62-5.75.02-.17.05-.34.08-.51.07.17.17.33.21.5.61,3.23,1.08,6.49,1.84,9.69,1.78,7.45,7.1,10.89,14.01,12.41,2.25.49,4.53.21,6.79.31.2,0,.39.08.59.12-.18.12-.34.27-.53.37-1.97.95-4.16.99-6.25,1.48-10.48,2.45-14.63,7.35-15.57,18.42-.1,1.18-.28,2.36-.46,3.53-.03.23-.23.44-.5.92Z"/><path class="cls-1" d="m.52,429.81c-.06-8.54-.15-17.09,2.64-25.34,1.78-5.25,4.27-10.15,8.2-14.05,2.68-2.66,3.42-5.57,3.41-9.19-.1-26.32,0-52.63-.08-78.95-.02-8.21,1.83-15.88,5.6-23.15,14.63-28.21,29.13-56.48,43.85-84.63,8.18-15.64,21.3-23.58,39-23.59,109.54-.03,219.07.03,328.61-.08,11.48-.01,20.39,4.18,27.47,13.14,27.31,34.59,54.79,69.05,82.1,103.64,2.62,3.32,5.51,4.93,9.77,5.54,40.55,5.83,81.06,11.91,121.58,17.9,12.33,1.82,24.66,3.57,36.99,5.36,14.06,2.05,24.79,9.07,32.15,21.29,7.05,11.71,14.31,23.29,21.32,35.02,1.59,2.67,3.56,4.26,6.51,5.26,17.43,5.95,27.25,18.44,29.42,36.47,2.09,17.38-3.21,32.5-18.02,42.54-14.12,9.57-29.07,17.94-43.69,26.77-4.08,2.47-8.65,1.57-13.03,1.19-2.6-.23-2.14-2.72-2.2-4.51-.58-16.53-4.52-32.12-13.45-46.17-15.82-24.9-38.26-39.8-67.79-42.39-37.57-3.3-66.43,11.91-86.36,43.69-8.12,12.94-12.29,27.35-12.43,42.78-.06,6.79-.16,6.88-6.91,6.89-92.28,0-184.56-.02-276.83.08-4.38,0-6.26-.85-6.35-5.79-.29-14.9-3.75-29.11-11.34-42.09-15.72-26.89-38.92-42.4-70.06-45.72-47.99-5.11-91.06,29.86-97.65,76.83-.52,3.7-.58,7.5-.53,11.25.05,3.81-1.24,5.66-5.36,5.5-5.8-.23-11.62-.15-17.43-.02-2.95.07-5.19-.99-7.34-2.95-12.98-11.87-26.02-23.68-39.1-35.45-1.79-1.61-2.71-3.43-2.7-5.8.02-3.76,0-7.52,0-11.28Zm501.32-138.7c-22.45-31.25-44.7-62.16-66.84-93.14-2.02-2.82-4.54-3.16-7.55-3.15-34.86.03-69.71.1-104.57-.07-4.93-.02-6.46,1.57-6.43,6.47.19,28.02.08,56.04.1,84.07,0,6.67.04,6.7,6.99,6.7,57.58,0,115.16,0,172.74-.02,1.65,0,3.39.43,5.57-.85Zm-290.94-3.23c21.18,0,42.36-.08,63.54.07,3.99.03,5.7-1.04,6.06-5.34,2.32-28.04,4.87-56.07,7.46-84.08.36-3.91-2.08-3.67-4.49-3.67-38.6-.02-77.2.02-115.81-.06-3.77,0-5.46,1.44-6.25,5.1-5.96,27.52-11.97,55.04-18.22,82.5-1.07,4.7.43,5.59,4.69,5.56,21.01-.14,42.02-.06,63.03-.06Zm-125.64-8.3c5.46,0,10.93-.07,16.39.03,2.71.05,4.42-.8,5.44-3.53,9.43-25.26,18.93-50.5,28.51-75.7,1.22-3.22.41-4.43-2.95-4.4-7,.06-14,.17-21-.05-3.56-.11-5.59,1.19-7.19,4.37-12.65,25.16-25.38,50.28-38.23,75.34-1.84,3.59-.49,4.03,2.65,3.98,5.46-.09,10.93-.03,16.39-.03Z"/><path class="cls-1" d="m559.01,481.15c0-40.76,32.52-73.38,73.08-73.32,40.33.07,73.17,33.11,73.06,73.61-.11,38.96-30.7,72.95-73.1,72.94-46.33-.02-74.42-38.64-73.05-73.23Z"/><path class="cls-1" d="m161.91,408.86c39.9-.01,72.92,32.55,72.5,72.3-.42,40.04-30.87,72.34-72.43,72.25-41.96-.09-72.02-32.99-72.22-72.46-.19-39.58,32.59-72.08,72.15-72.09Z"/></svg>