<?xml version="1.0" encoding="UTF-8"?><svg id="Logos" xmlns="http://www.w3.org/2000/svg" viewBox="0 0 900 900"><defs><style>.cls-1{fill:#fff;}</style></defs><path class="cls-1" d="m450.28,647.5c-.16-.59-.66-.79-1.15-1.03-23.92-11.96-47.49-24.59-71.22-36.91-22.64-11.75-45.24-23.58-67.86-35.37-18.1-9.44-36.21-18.86-54.3-28.31-15.34-8.01-30.66-16.07-46.01-24.07-23.52-12.26-47.07-24.48-70.59-36.74-14.02-7.31-27.98-14.73-42.03-21.97-8.53-4.4-16.95-8.98-25.48-13.36-19.83-10.19-39.58-20.52-59.31-30.9-3.37-1.77-6.73-3.56-10.09-5.34-.37-.2-.81-.33-1.04-.91.31-1.04,1.08-1.94,1.68-2.92,8.32-13.68,16.64-27.37,25.01-41.02,6.3-10.27,12.69-20.49,19-30.76,5.22-8.48,10.37-17.01,15.58-25.5,5.46-8.9,10.96-17.78,16.42-26.68,3.95-6.43,7.86-12.89,11.82-19.33,2.63-4.29,5.32-8.55,7.95-12.84.41-.67.88-1.04,1.67-1,.48.02.97,0,1.45,0,75.39,0,150.79,0,226.18-.05,2.06,0,3.05.67,3.81,2.54,1.22,3.01,2.77,5.88,4.23,8.92,4.96-3.4,10.28-5.67,15.8-7.45,6.3-2.04,12.78-3.17,19.4-3.64,5.04-.36,10.09-.32,15.13-.32,136.77,0,273.54,0,410.31,0,.7,0,1.39,0,2.35,0,33.42,53.79,66.71,107.73,99.85,161.72-.35.66-.91.88-1.42,1.15-24.21,12.92-48.66,25.36-72.97,38.07-15.58,8.14-31.22,16.15-46.82,24.25-14.31,7.43-28.6,14.92-42.91,22.35-29.24,15.2-58.5,30.37-87.74,45.56-29.91,15.53-59.83,31.07-89.74,46.6-31.43,16.33-62.87,32.66-94.3,48.98-3.23,1.68-6.52,3.26-9.76,4.92-.68.35-1.55.49-1.89,1.35h-.97Zm339.63-382h-297.17c-2.84,3.85-6,7.3-9.01,10.94-.42-3.67-.08-7.3-.58-10.89h-56.23c-.43,2.24-.81,4.37-.97,6.51-.84.04-1.31-.37-1.82-.63-10.81-5.61-22.3-8.44-34.47-8.59-2.74-.03-5.47.23-8.21.31-7.87.24-15.59,1.4-23.08,3.88-10.09,3.35-19.34,8.17-27.19,15.45-.33.31-.54.83-1.33.83-2.87-5.79-5.3-11.88-8.06-17.89-.85,0-1.6,0-2.34,0-16.75,0-33.51.06-50.26-.07-2.55-.02-4.14.78-5.62,2.75-1.97,2.64-4.26,5.04-6.55,7.7-1.2-3.51-1.88-6.97-3.14-10.31h-63.86c-2.73,4.23-5.13,8.68-8.22,12.71-.68-4.21-.4-8.44-1.05-12.68h-68.84c-26.92,45.82-53.84,91.64-80.84,137.6,2.11,1.06,4.01,2.02,5.92,2.98,18,9.06,36,18.12,54,27.17,33.41,16.8,66.83,33.6,100.24,50.4,27.63,13.89,55.26,27.76,82.88,41.65,26.95,13.55,53.89,27.12,80.84,40.67,21.02,10.57,42.04,21.11,63.06,31.68,10.39,5.22,20.77,10.46,31.15,15.69.85.43,1.62.86,2.7.32,9.55-4.86,19.13-9.67,28.7-14.47,23.09-11.58,46.18-23.15,69.28-34.7,22.95-11.48,45.92-22.94,68.87-34.42,16.29-8.15,32.55-16.36,48.84-24.52,39.62-19.85,79.24-39.7,118.87-59.53,27.07-13.55,54.15-27.09,81.23-40.63,1.04-.52,2.08-1.02,3.33-1.63-27.07-46.16-54.06-92.19-81.07-138.25Z"/><path class="cls-1" d="m274.96,345.93c4.44-.29,8.94-.06,13.67-.15-1.03-11.81-2.05-23.49-3.08-35.34-.62.39-.86.93-1.16,1.4-13.85,22.11-27.69,44.23-41.53,66.34-1.39,2.23-2.81,4.44-4.13,6.7-.5.86-1.11,1.16-2.08,1.16-8.75.05-17.5.09-26.25-.02-.64,0-1.28,0-1.9,0-.37-.47-.11-.78.14-1.15,15.94-22.86,31.87-45.72,47.8-68.59,6.83-9.81,13.69-19.6,20.46-29.44,1.1-1.6,2.33-2.2,4.26-2.18,7.95.1,15.89.04,23.84.04.58,0,1.17,0,1.85,0,4.53,33.88,9.03,67.62,13.55,101.41h-28.68c-.72-7.21-.68-14.39-1.92-21.62h-26.13c-.1-.12-.19-.23-.29-.35,3.8-5.98,7.61-11.97,11.58-18.22Z"/><path class="cls-1" d="m656.55,303.84c-8.18-.02-16.48.22-24.92-.14-1.62-6.31-3.23-12.56-4.84-18.8,1.12-.56,68.18-.68,69.9-.12,2.47,6.16,4.94,12.35,7.52,18.8h-23.73c9.6,27.6,19.12,54.94,28.69,82.46h-27.25c-8.45-27.36-16.88-54.68-25.38-82.2Z"/><path class="cls-1" d="m200.43,284.77h6.05c.2.33.09.57-.03.82-6.27,14.02-12.55,28.03-18.8,42.06-.97,2.17-2.3,4.11-3.71,6-12.35,16.6-24.73,33.18-37.02,49.83-1.37,1.85-2.74,2.71-5.13,2.66-7.83-.17-15.67-.07-23.51-.07-.26,0-.54.02-.76-.18-.31-.39-.16-.82-.06-1.23,2.14-9.28,3.85-18.65,5.77-27.97,1.56-7.6,3.04-15.22,4.59-22.82.35-1.73.97-3.39,1.81-4.96,7.56-14.05,15.13-28.09,22.64-42.16.81-1.52,1.78-2.24,3.54-2.06,1.43.14,2.88.03,4.71.03-2.81,12.84-5.75,25.46-8.6,38.09-2.84,12.6-5.72,25.2-8.58,37.8.13.07.25.15.38.22,18.86-25.3,37.73-50.6,56.7-76.05Z"/><path class="cls-1" d="m507.69,342.53h-33.19c-.14-6.44-.4-12.72-.17-19.18h32.04c.18-6.59-.77-12.94-1.13-19.32-.36-6.36-.41-12.73-1.22-19.2h23.19c3.5,33.65,6.99,67.27,10.51,101.09h-27.21c-.82-14.42-1.64-28.78-2.81-43.4Z"/><path class="cls-1" d="m376.16,368.96c-.57,6.55-1.49,12.87-2.4,19.24-2.19.17-4.13-.26-6.06-.61-13.96-2.48-25.01-9.58-32.94-21.29-5.03-7.43-7.46-15.79-7.15-24.75.23-6.6,1.88-13,4.05-19.25,2.53-7.31,6.16-14,11.15-19.93,7.42-8.82,16.91-14.34,27.98-17.31,5.05-1.36,10.24-1.76,15.42-2.21.26-.02.52.05,1.07.11-.11,6.43-1.58,12.65-2.16,18.9-.61.16-.87.26-1.13.28-7.82.47-13.95,4.23-19.04,9.87-4.94,5.47-7.71,12.02-9.06,19.21-.81,4.29-1.27,8.61-.65,12.94,1.09,7.65,3.76,14.6,9.61,19.99,3.13,2.89,6.76,4.68,11.31,4.81Z"/><path class="cls-1" d="m444.82,284.78h23.19v101.2h-27.07c1.29-33.68,2.58-67.36,3.88-101.2Z"/><path class="cls-1" d="m777.88,386.06h-26.32c-14.52-33.8-29-67.54-43.43-101.13.22-.42.42-.5.64-.49,6.82.02,13.63.06,20.45.03,1.15,0,1.7.46,2.17,1.47,8.23,17.65,16.49,35.28,24.74,52.92,6.28,13.42,12.57,26.84,18.87,40.25.82,1.74,1.71,3.45,2.54,5.19.27.56.69,1.11.33,1.77Z"/><path class="cls-1" d="m580.66,386.06h-26.7c-4.26-33.78-8.5-67.46-12.74-101.12,1.32-.6,20.53-.69,22.74-.08,5.55,33.63,11.11,67.33,16.7,101.2Z"/><path class="cls-1" d="m66.52,385.67c19.56-33.62,39.15-67.27,58.71-100.88h21.96c-1.15,2.11-2.22,4.06-3.28,6.02-9.85,18.11-19.7,36.22-29.56,54.33-6.19,11.38-12.4,22.76-18.58,34.15-.89,1.65-1.74,3.32-2.52,5.02-.6,1.31-1.4,1.88-2.96,1.85-7.46-.13-14.93-.1-22.39-.13-.41,0-.86.17-1.39-.35Z"/><path class="cls-1" d="m169.77,385.85c14.78-33.79,29.5-67.43,44.14-100.91,1.55-.28,19.57-.34,21.58-.12.18.61-.16,1.11-.37,1.63-10.95,27.36-21.9,54.73-32.84,82.09-2.12,5.31-4.2,10.65-6.28,15.98-.39,1-.92,1.56-2.11,1.56-7.78-.04-15.57-.02-23.35-.03-.15,0-.3-.08-.77-.2Z"/><path class="cls-1" d="m450.75,537.52c-8.13,6.12-16.26,12.23-24.39,18.35-.12-.04-.24-.09-.36-.13,3.01-9.8,6.02-19.59,9.01-29.31-1.02-1.29-2.29-1.93-3.41-2.72-6.15-4.31-12.32-8.58-18.48-12.88-.8-.56-1.72-1.05-2.13-2.08,10.13.03,20.1-1.08,30.14-1.03,3.18-9.29,6.32-18.46,9.46-27.63.11.01.22.02.33.03,3.15,9.18,6.31,18.35,9.5,27.62,10.04,0,19.92.78,29.85,1.19.21.36-.07.57-.33.75-7.21,5.04-14.41,10.08-21.62,15.11-.61.43-1.31.74-1.79,1.8,2.96,9.59,6,19.42,9.04,29.26-.09.05-.17.11-.26.16-8.19-6.16-16.37-12.33-24.55-18.48Z"/><path class="cls-1" d="m213.73,421.29c-.58-.61-1.2-.5-1.78-.51-2.09-.02-4.19.04-6.28-.05-1.3-.06-2.06.43-2.69,1.56-4.83,8.71-9.75,17.37-14.53,26.1-1.08,1.98-2.41,3.03-4.69,2.87-1.18-.08-2.36-.02-3.54-.06-.75-.02-1.49-.11-2.24-.66.84-1.51,1.65-3,2.49-4.47,4.29-7.54,8.68-15.02,12.84-22.63,2.63-4.8,6.35-8.1,11.72-9.21,4.07-.84,8.32-1.01,12.31-.01,2.46.61,4.47.56,6.89,0,3.87-.91,7.92-.74,11.85-.15,4.35.65,6.32,3.58,5.63,7.97-1.13,7.24-2.54,14.44-3.86,21.65-.32,1.74-.48,3.5-.85,5.22-.41,1.91-1.07,2.38-3.02,2.4-1.56.01-3.11-.01-4.67-.03-.7,0-1.41,0-1.92-.82,1.85-9.67,3.72-19.43,5.59-29.21-.37-.62-1.02-.46-1.58-.47-2.15-.02-4.29,0-6.44-.01-1.86-.01-2.08.09-2.72,1.82-2.82,7.62-5.63,15.26-8.43,22.89-.44,1.2-.84,2.43-1.29,3.63-.38,1-.99,1.81-2.13,1.98-2.24.32-4.49.3-6.73-.02-.33-.05-.61-.19-.96-.68,3.65-9.63,7.36-19.39,11.04-29.09Z"/><path class="cls-1" d="m405.26,350.54h26.88c-2.84,9.51-7.54,17.78-15.01,24.37-10.2,9-22.31,12.98-35.98,13.67.78-6.64,1.53-13.06,2.27-19.35,10.9-2.18,18.74-7.5,21.83-18.68Z"/><path class="cls-1" d="m583.57,367.17h53.79c1.6,6.24,3.19,12.43,4.82,18.78h-55.4c-1.07-6.22-2.13-12.45-3.22-18.78Z"/><path class="cls-1" d="m775.4,367.11h53.8c3.48,6.24,6.95,12.46,10.54,18.9h-55.35c-2.95-6.2-5.9-12.4-8.99-18.9Z"/><path class="cls-1" d="m433.02,440.46h8.46c.94.98.4,2.46,1.05,3.53h18.71c.43-2.67.12-5.2.01-7.65-.65-.56-1.32-.4-1.95-.41-5.05-.03-10.09-.03-15.14-.09-2.56-.03-5.01-.57-7.23-1.88-2.49-1.46-3.95-3.57-3.96-6.54,0-1.93-.02-3.85.14-5.78.19-2.3,1.27-4.05,3.09-5.39,1.99-1.47,4.25-2.36,6.71-2.42,6.17-.15,12.34-.37,18.5.15,2.37.2,4.42,1.26,6.21,2.8,2.2,1.9,3.23,5.29,2.25,7.73-2.74.15-5.59.19-8.34.02-.65-1.21-.06-2.37-.63-3.34-1.28-.54-15.74-.73-18.47-.18-.3,2.51-.21,5.08,0,7.59.72.31,1.32.2,1.9.2,5.26,0,10.52,0,15.78,0,3.48,0,6.53,1.06,8.91,3.72,1.19,1.33,1.83,2.88,1.85,4.67.03,1.88-.02,3.75.08,5.62.14,2.65-1.15,4.48-3.16,5.95-1.78,1.31-3.85,1.99-5.99,2.15-6.59.49-13.19.52-19.78.06-1.16-.08-2.33-.41-3.43-.82-4.78-1.76-6.54-4.44-5.59-9.7Z"/><path class="cls-1" d="m736.07,284.83c.55-.46,1.04-.37,1.51-.37,13.84,0,27.68-.01,41.53-.02.59,0,1.18.04,1.77.02.92-.04,1.49.39,1.9,1.2,2.73,5.4,5.89,10.56,8.75,15.88.34.63.92,1.2.79,1.95h-47.3c-3.02-6.29-5.97-12.45-8.95-18.65Z"/><path class="cls-1" d="m619.99,303.21c-1.24.53-45.15.67-47.53.14-1.07-6.12-2.15-12.31-3.22-18.46.54-.58,1.17-.42,1.73-.42,13.73,0,27.46,0,41.19,0,3.14,0,3.14.02,3.91,3.1,1.3,5.17,2.59,10.35,3.92,15.63Z"/><path class="cls-1" d="m621.13,323.4c1.52,6.22,2.99,12.22,4.51,18.43h-46.51c-1.05-6.08-2.1-12.19-3.18-18.43h45.18Z"/><path class="cls-1" d="m799.7,323.4c3.33,6.07,6.64,12.11,9.96,18.15-1.35.6-38.11.88-46.21.35-3.17-5.9-5.89-12.14-8.9-18.5h45.15Z"/><path class="cls-1" d="m391.66,301.82c.76-6.16,1.5-12.24,2.28-18.6,9.14.71,17.16,3.98,24.2,9.63,7.86,6.3,12.31,14.58,14.17,24.7-8.4.22-16.52.12-24.8.07-1.65-8.85-7.04-13.96-15.86-15.8Z"/><path class="cls-1" d="m317.52,414.08c1.98-.48,6.33-.47,8.32.11-1.61,9.86-3.95,19.65-5.55,29.8,6.59.18,12.94.17,19.51,0,1.9-9.99,3.36-19.9,5.03-29.61,1.79-.82,6.58-.88,8.66-.19.37,1.19.07,2.39-.15,3.59-1.12,6.1-1.99,12.25-2.93,18.38-.28,1.79-.7,3.57-.83,5.39-.35,4.88-3.95,7.55-7.99,8.77-2.12.64-4.32.86-6.52.87-5.2.02-10.41.29-15.6-.18-2.32-.21-4.54-.82-6.35-2.42-1.7-1.5-2.45-3.35-1.98-5.61,1.81-8.8,3.63-17.59,5.47-26.39.18-.87.26-1.82.93-2.5Z"/><path class="cls-1" d="m713.29,425.73c-2.14.08-4.22.18-6.31.06-1.06-.06-1.68-.52-2.02-1.49-1.47-4.09-.85-3.6-5.51-3.6-3.86,0-7.73,0-11.59,0-.62,0-1.29-.17-1.93.43,1.14,3.61,2.28,7.26,3.44,10.91,1.06,3.36,2.17,6.72,3.17,10.1.37,1.27,1.04,1.88,2.38,1.9,5.15.08,10.3.12,15.45-.07.2,0,.39-.12.64-.19.31-1.64-1-2.93-.86-4.48.44-.63,1.12-.6,1.75-.64,1.66-.1,3.32-.13,4.99.02.95.09,1.62.48,1.98,1.37.67,1.65,1.14,3.36,1.27,5.12.15,2.03-1.57,4.26-3.82,5.06-1.31.47-2.67.79-4.09.79-5.1,0-10.2.02-15.29-.05-2.1-.03-4.16-.46-6.09-1.31-3.51-1.55-5.95-4-7.04-7.82-1.75-6.12-3.71-12.17-5.56-18.26-.23-.76-.31-1.57-.51-2.35-.99-3.89,1.8-6.46,5.09-7.21.93-.21,1.92-.28,2.88-.28,4.62-.03,9.23-.05,13.85,0,6.37.06,11.59,3.84,13.66,9.83.23.66.5,1.31.1,2.17Z"/><path class="cls-1" d="m568.06,413.93c2.58-.33,5.22-.31,7.91.02.92,1.43.95,3.03,1.23,4.52,1.65,8.72,3.22,17.45,4.83,26.18.25,1.37.57,2.72.83,4.09.32,1.72-.09,2.25-1.88,2.3-1.61.05-3.22.05-4.83-.01-2.09-.08-2.35-.35-2.69-2.39-1-5.9-2-11.8-3.01-17.7-.89-5.22-1.78-10.43-2.68-15.65-.07-.38-.1-.74.29-1.36Z"/></svg>