<?xml version="1.0" encoding="UTF-8"?><svg id="Logos" xmlns="http://www.w3.org/2000/svg" viewBox="0 0 900 900"><defs><style>.cls-1{fill:#fff;}</style></defs><g id="Capa_2"><g id="ILUSTRACION"><path class="cls-1" d="m83.83,280.95c-45.91.12-83.09,37.31-83.21,83.21v166.21c-2.36,46.02,33.04,85.23,79.06,87.59,46.02,2.36,85.23-33.04,87.59-79.06.15-2.84.15-5.69,0-8.53v-166.21c-.12-45.99-37.44-83.21-83.43-83.21Zm7.64,254.88c-.12,4.14-3.51,7.43-7.64,7.43-4.1,0-7.43-3.32-7.43-7.43h0v-176.91c0-4.1,3.32-7.43,7.43-7.43,4.14,0,7.53,3.29,7.64,7.43v176.91Z"/><path class="cls-1" d="m780.34,280.95c-45.96,0-83.21,37.26-83.21,83.21v85.4l75.57-52.2v-38.44c.12-4.14,3.51-7.43,7.64-7.43,4.1,0,7.43,3.32,7.43,7.43h0v46.3l-52.86,36.47c-12.2,6.95-22.65,16.59-30.58,28.17-5.46,11.19-7.94,23.61-7.21,36.04v24.46c0,45.96,37.26,83.21,83.21,83.21s83.21-37.26,83.21-83.21v-166.21c-.12-45.91-37.31-83.09-83.21-83.21Zm0,262.09c-4.14,0-7.53-3.29-7.64-7.43v-34.95c0-10.05,2.62-11.58,10.48-17.25l3.71-3.71v56.13c-.08,3.7-2.88,6.77-6.55,7.21Z"/><path class="cls-1" d="m513.88,477.52l-31.01,45.65,21.84-51.76c.71-1.14.71-2.58,0-3.71-.92-1.2-2.48-1.71-3.93-1.31-6.72,1.75-13.29,4.01-19.66,6.77-8.3,3.71-32.54,13.54-32.54,13.54,0,0,19.66-14.2,26.43-19.66,2.84-2.18,7.21-5.68,10.27-8.52h-43.68v76.23c0,4.14-3.29,7.53-7.43,7.64-4.22,0-7.64-3.42-7.64-7.64h0v-91.51h59.63c-3.28-3.06-7.43-6.33-10.27-8.52l-26.43-19.66,31.67,13.32c6.1,2.87,12.37,5.35,18.78,7.43,1.31-.03,2.49-.79,3.06-1.97.75-1.2.75-2.73,0-3.93-4.81-11.58-21.84-51.76-21.84-51.76l32.76,46.52c.44.78.95,1.51,1.53,2.18v-62.68c-2.36-46.02-41.57-81.41-87.59-79.06-42.72,2.19-76.87,36.33-79.06,79.06v166.21c-2.36,46.02,33.04,85.23,79.06,87.59,46.02,2.36,85.23-33.04,87.59-79.06.15-2.84.15-5.69,0-8.53v-55.91l-1.53,3.06Zm-89.33-118.6c.12-4.14,3.51-7.43,7.64-7.43,4.1,0,7.43,3.32,7.43,7.43h0v38.44h-15.07v-38.44Z"/><path class="cls-1" d="m606.27,280.95c-45.99,0-83.31,37.22-83.43,83.21v62.68c.58-.68,1.09-1.41,1.53-2.18,1.09-1.31,31.23-45.65,31.23-45.65,0,0-15.94,40.19-21.84,51.76-.62,1.24-.62,2.69,0,3.93,1.2.75,2.73.75,3.93,0,6.42-2.04,12.7-4.52,18.78-7.43l33.85-12.67-26.21,19.22c-4.96,3.72-9.57,7.88-13.76,12.45-.66,1.21-1.04,2.55-1.09,3.93.02,1.38.4,2.74,1.09,3.93,4.08,4.68,8.7,8.86,13.76,12.45,6.99,5.46,26.65,19.66,26.65,19.66h0l8.95,6.12c15.07,10.92,13.98,13.76,13.98,39.97v3.06c0,4.1-3.32,7.43-7.43,7.43h0c-4.14,0-7.53-3.29-7.64-7.43v-24.9l-63.34-43.68c-.62,1.16-.62,2.55,0,3.71,5.02,11.79,21.84,51.76,21.84,51.76l-32.32-44.77-1.53-2.18v55.91c-2.36,46.02,33.04,85.23,79.06,87.59,46.02,2.36,85.23-33.04,87.59-79.06.15-2.84.15-5.69,0-8.53v-20.31c0-42.15-11.36-49.14-37.13-67.71l-37.35-26.43c-15.51-11.14-16.82-15.29-16.82-40.19v-17.69c.12-4.14,3.51-7.43,7.64-7.43,4.1,0,7.43,3.32,7.43,7.43h0v38.44l75.79,52.2v-85.4c-.12-45.91-37.31-83.09-83.21-83.21Z"/><path class="cls-1" d="m257.91,280.95c-45.65.48-82.44,37.56-82.56,83.21v166.21c-2.36,46.02,33.04,85.23,79.06,87.59,46.02,2.36,85.23-33.04,87.59-79.06.15-2.84.15-5.69,0-8.53v-72.08h-76.44v77.54c-.71,4.16-4.66,6.96-8.82,6.25-3.2-.55-5.7-3.05-6.25-6.25v-176.91c.71-4.16,4.66-6.96,8.82-6.25,3.2.55,5.7,3.05,6.25,6.25v84.31h75.79v-79.06c-.12-45.99-37.44-83.21-83.43-83.21Z"/><path class="cls-1" d="m896.1,572.09c2.2,2.21,3.45,5.18,3.49,8.3,0,3.12-1.26,6.12-3.49,8.3-2.24,2.31-5.3,3.64-8.52,3.71-3.16-.03-6.17-1.37-8.3-3.71-2.2-2.21-3.45-5.18-3.49-8.3.08-3.17,1.32-6.21,3.49-8.52,2.23-2.14,5.21-3.31,8.3-3.28,3.21-.12,6.32,1.16,8.52,3.49Zm0,1.09c-1.97-1.96-4.64-3.06-7.43-3.06-2.69-.06-5.28.97-7.21,2.84-1.91,2.01-3,4.66-3.06,7.43-.02,2.72,1.08,5.33,3.06,7.21,1.9,1.93,4.5,3.03,7.21,3.06,2.91-.24,5.59-1.66,7.43-3.93,1.9-1.81,2.94-4.36,2.84-6.99-.09-2.46-1.1-4.8-2.84-6.55Zm-1.53,3.93c.13,1.85-1.21,3.49-3.06,3.71l3.06,6.12h-2.84l-2.62-5.68h-2.62v5.46h-2.62v-13.54h5.24c3.49.22,5.24,1.53,5.24,3.93h.22Zm-8.08-1.97v4.37h2.18c2.18,0,3.28,0,3.28-2.18s0-2.18-3.28-2.18h-2.18Z"/></g></g></svg>