<?xml version="1.0" encoding="UTF-8"?><svg id="Logos" xmlns="http://www.w3.org/2000/svg" viewBox="0 0 900 900"><defs><style>.cls-1{fill:#fff;}</style></defs><path class="cls-1" d="m348.43,493.86v-42.84c0-6.33-1.22-10.93-3.63-13.86-2.42-2.9-6.38-4.35-11.88-4.35-2.53,0-5.24.72-8.14,2.15-2.87,1.42-5.14,3.2-6.75,5.33v53.57h-17.3v-74.12h12.45l3.2,6.92c4.7-5.53,11.65-8.31,20.83-8.31s15.78,2.63,20.87,7.92c5.11,5.29,7.66,12.65,7.66,22.11v45.47h-17.31v.02Z"/><path class="cls-1" d="m380.53,433.63h-8.58v-13.91h8.58v-15.1l17.3-6.36v21.46h20.37v13.91h-20.37v32.47c0,5.31.83,9.06,2.5,11.25,1.65,2.2,4.57,3.29,8.71,3.29s8.03-1.15,11.64-3.4v15.93c-4.01,1.39-9.75,2.09-17.17,2.09s-13.08-2.09-17.04-6.27c-3.98-4.16-5.96-10.12-5.96-17.83v-37.52h.02Z"/><path class="cls-1" d="m472.69,435.85c-3.09-2.02-6.49-3.03-10.17-3.03-4.01,0-7.58,1.83-10.69,5.48-3.11,3.64-4.66,8.1-4.66,13.36v42.23h-17.31v-74.14h17.31v6.77c4.83-5.46,11.28-8.16,19.31-8.16,5.9,0,10.43.89,13.56,2.68l-7.34,14.82Z"/><path class="cls-1" d="m522.98,486.46c-1.57,2.57-4.31,4.7-8.21,6.33-3.9,1.63-7.97,2.46-12.21,2.46-7.97,0-14.26-2-18.83-5.99-4.57-4-6.84-9.66-6.84-17,0-8.56,3.22-15.3,9.66-20.13,6.42-4.85,15.58-7.27,27.43-7.27,2.02,0,4.42.35,7.2,1.04,0-8.71-5.53-13.08-16.54-13.08-6.51,0-11.95,1.09-16.33,3.26l-3.74-13.43c5.96-2.87,13.04-4.29,21.26-4.29,11.3,0,19.59,2.57,24.84,7.7,5.25,5.14,7.9,14.89,7.9,29.27v15.83c0,9.9,1.98,16.09,5.96,18.63-1.42,2.5-3.03,4.03-4.79,4.61-1.74.57-3.76.87-6.01.87-2.5,0-4.72-.92-6.72-2.77-1.98-1.83-3.33-3.85-4.01-6.01Zm-1.66-27.47c-2.96-.61-5.16-.92-6.64-.92-13.67,0-20.48,4.48-20.48,13.45,0,6.64,3.85,9.95,11.56,9.95,10.4,0,15.58-5.18,15.58-15.56v-6.92h-.02Z"/><path class="cls-1" d="m580.35,495.25h-6.23l-33.5-75.51h18.98l17.7,45.27,19.04-45.27h18.35l-34.33,75.51Z"/><polygon class="cls-1" points="630.35 493.86 630.35 433.92 620.86 433.92 620.86 419.74 647.85 419.74 647.85 493.86 630.35 493.86"/><path class="cls-1" d="m639.29,391.01c2.76,0,5.12.96,7.09,2.92,1.96,1.96,2.96,4.35,2.96,7.1s-.98,5.12-2.96,7.09c-1.96,1.96-4.33,2.94-7.09,2.94s-5.14-.98-7.12-2.94c-1.94-1.96-2.92-4.33-2.92-7.09s.98-5.14,2.92-7.1c1.98-1.96,4.33-2.92,7.12-2.92Z"/><path class="cls-1" d="m659.19,489.07l6.14-13.76c5.16,4.11,11.01,6.14,17.52,6.14s10.1-2.39,10.1-7.2c0-2.81-1.02-5.12-3.05-6.92s-5.98-3.92-11.84-6.38c-12.78-5.31-19.16-12.75-19.16-22.29,0-6.4,2.44-11.4,7.33-14.98,4.88-3.57,11.15-5.35,18.76-5.35s14.95,1.72,21.74,5.18l-4.98,13.43c-3.79-3.24-9.05-4.85-15.78-4.85-6.05,0-9.06,2.4-9.06,7.2,0,1.89,1,3.61,2.98,5.12,1.98,1.52,6.23,3.57,12.73,6.12,6.51,2.57,11.19,5.66,14.06,9.3,2.87,3.64,4.29,8.07,4.29,13.23,0,6.86-2.55,12.28-7.64,16.22-5.11,3.96-12.04,5.92-20.81,5.92-4.94,0-8.9-.41-11.86-1.2-3-.78-6.81-2.44-11.45-4.94Z"/><polygon class="cls-1" points="726.34 493.86 726.34 433.92 716.85 433.92 716.85 419.74 743.84 419.74 743.84 493.86 726.34 493.86"/><path class="cls-1" d="m735.28,391.01c2.77,0,5.14.96,7.1,2.92,1.96,1.96,2.92,4.35,2.92,7.1s-.96,5.12-2.92,7.09c-1.96,1.96-4.33,2.94-7.1,2.94s-5.14-.98-7.1-2.94c-1.96-1.96-2.94-4.33-2.94-7.09s.98-5.14,2.94-7.1c1.96-1.96,4.33-2.92,7.1-2.92Z"/><path class="cls-1" d="m754.77,456.62c0-11.32,3.26-20.52,9.8-27.62,6.53-7.1,15.13-10.66,25.84-10.66,11.25,0,20,3.42,26.23,10.23,6.23,6.84,9.36,16.19,9.36,28.04s-3.18,21.2-9.53,28.16c-6.35,6.97-15.04,10.47-26.05,10.47s-20.02-3.53-26.27-10.56c-6.27-7.03-9.4-16.39-9.4-28.06Zm18,0c0,16.33,5.88,24.51,17.65,24.51,5.38,0,9.67-2.13,12.84-6.38,3.14-4.24,4.74-10.29,4.74-18.13,0-16.11-5.86-24.16-17.57-24.16-5.4,0-9.69,2.13-12.89,6.38-3.16,4.24-4.75,10.17-4.75,17.78Z"/><path class="cls-1" d="m880.86,493.86v-42.84c0-6.33-1.2-10.93-3.64-13.86-2.42-2.9-6.38-4.35-11.88-4.35-2.53,0-5.25.72-8.14,2.15s-5.12,3.2-6.75,5.33v53.57h-17.3v-74.12h12.45l3.18,6.92c4.7-5.53,11.65-8.31,20.85-8.31s15.76,2.63,20.89,7.92c5.09,5.29,7.64,12.65,7.64,22.11v45.47h-17.3v.02Z"/><path class="cls-1" d="m288.9,479.8c-15.35.02-27.32.06-30.75.06-6.33,0-11.36-1.63-15.08-4.9-3.74-3.29-5.77-7.88-6.09-13.78h52.96c.98-4.29,1.44-7.49,1.44-9.62,0-9.92-3.26-18.09-9.75-24.51-6.51-6.4-15.13-9.62-25.88-9.62-10.12,0-18.78,3.63-26.01,10.86-7.21,7.25-10.82,16.72-10.82,28.38s3.29,21.09,9.86,27.73c6.57,6.62,15.52,9.93,26.82,9.93,5.03,0,17.3.13,33.3-.02v-14.5h-.02Zm-32.89-47.91c10.8,0,16.8,5.42,18,16.26h-36.41c2.39-10.84,8.53-16.26,18.41-16.26Z"/><path class="cls-1" d="m43.33,456.68c.68-.39,1.35-.78,2.03-1.15,2.42-1.35,4.88-2.63,7.36-3.88,1.55-.74,2.9-1.52,3.46-1.74.02,0,1.02-.5,1.04-.5.24-.11.67-.31.91-.43.7-.33,1.41-.65,2.09-.98.13-26.64,26.31-48.21,58.57-48.21,17.07,0,32.41,6.07,43.12,15.71.17-.04.33-.07.5-.11,1.17-.28,2.15-.54,3.76-.98l.91-.31c13.37-3.53,15.19-10.17,13.93-15.71-14.02-21.44-36.65-35.39-62.19-35.39-42.58-.02-77.1,38.66-77.1,86.39,0,2.74.13,5.42.35,8.08.43-.26.85-.54,1.28-.8Z"/><path class="cls-1" d="m193.06,462.93c-.61-.2-1,.41-1.26,1.17-6.84,22.49-33.58,39.29-65.52,39.29-23.7,0-44.53-9.23-56.5-23.2-5.77,2.31-11.43,4.77-16.89,7.4-1.17.55-2.29,1.15-3.4,1.72,12.67,28.28,38.57,47.69,68.46,47.69,38.03,0,69.57-31.37,75.66-72.52v-.04c.11-1.02,0-1.33-.55-1.52Z"/><path class="cls-1" d="m189.95,421.49c-.02-.07-.04-.15-.06-.2-1.46-11.73-9.12-23.22-9.3-23.53,1.92,6.01,1.35,14.11-13.45,18.09,0,0-4.05,1.11-5.86,1.52-18.74,4.24-37.31,9.45-55.5,15.37-15.76,5.12-31.45,10.99-46.34,18.33t-.04.02c0,.11-.02.18-.02.28l-.04.02c0-.09.02-.18.02-.28-4.01,1.98-7.95,4.05-11.84,6.25-2.18,1.24-4.37,2.53-6.53,3.9-13.84,8.68-26.95,19.79-33.91,34.63-2.4,5.12-3.85,10.25-4.94,15.74-1.24,9.8,1.54,16.35,3.2,19.26.31.41.61.8.91,1.13,5.44-15.89,20.37-38.42,60.94-53.31.67-.24,1.33-.48,1.98-.72,51.09-18.59,78.31-23.6,97.34-28.38,21.87-4.99,24.92-18.39,23.44-28.12Z"/><path class="cls-1" d="m190.12,422.71c-.02-.13-.02-.24-.04-.37.02.37.04.76.04,1.13v-.76Z"/></svg>