<?xml version="1.0" encoding="UTF-8"?><svg id="Logos" xmlns="http://www.w3.org/2000/svg" viewBox="0 0 900 900"><defs><style>.cls-1{fill:#fff;}</style></defs><path class="cls-1" d="m887.62,247.67c-62.63,142.94-124.87,285-187.18,427.19-84.29,39.88-168.56,79.75-253.29,119.84-86.13-40.83-172.32-81.68-259.48-123C129.55,531.86,71.18,391.41,12.98,251.38c1.68-3.2,4.47-3.06,6.61-3.8,26.26-9.03,52.57-17.92,78.88-26.82,23.5-7.95,47.03-15.79,70.51-23.8,23.5-8.02,46.94-16.23,70.44-24.27,15.4-5.27,30.86-10.34,46.28-15.56,24.03-8.14,48.05-16.32,72.07-24.5,14.4-4.91,28.83-9.73,43.15-14.85,4.28-1.53,8.24-1.44,12.52-.25,30.85,8.58,61.73,17.06,92.61,25.54,32.96,9.05,65.93,18.05,98.88,27.1,22.9,6.29,45.78,12.71,68.69,18.96,21.63,5.9,43.31,11.6,64.94,17.5,13.88,3.79,27.7,7.8,41.56,11.68,16.18,4.53,32.36,9.1,48.57,13.52,19.28,5.26,38.59,10.38,58.92,15.83Zm-215.78,412.28c5.11-11.79,10.26-23.8,15.52-35.75,5.16-11.74,10.51-23.39,15.63-35.14,5.23-11.99,10.24-24.08,15.43-36.09,5.19-12.01,10.48-23.97,15.72-35.96,5.13-11.75,10.26-23.5,15.39-35.25,5.24-12,10.49-23.98,15.72-35.98,5.11-11.75,10.19-23.52,15.29-35.27,5.2-12.01,10.4-24.03,15.62-36.03,5.21-12,10.39-24.02,15.67-35.99,5.17-11.73,10.77-23.27,15.59-35.14,4.88-12,10.92-23.55,15.38-36.32-35.63-9.63-70.36-19.02-104.8-28.33-7.45,3.55-14.41,6.87-20.81,9.92-29.71-7.45-63.55-17.95-69.24-21.55,5.43-2.68,11.12-4.58,16.86-9.19-34.78-9.22-68.21-18.08-101.14-26.8-8.55,2.45-16.19,5.61-23.52,8.74-13.5-3.88-26.62-7.64-40.74-11.69,6.08-4.06,12.5-4.52,18.71-8.51-37.27-11.1-73.81-20.85-109.53-31.22-20.28,6.79-39.79,13.29-59.28,19.85-19.48,6.56-38.93,13.19-58.4,19.77-19.47,6.58-38.95,13.11-58.42,19.68-19.72,6.66-39.42,13.38-59.14,20.04-19.48,6.57-39.01,13.03-58.47,19.66-19.35,6.6-38.81,12.89-58.49,19.88,55.29,131.49,110.21,262.1,165.15,392.75,32.23,14.03,64.07,27.89,95.92,41.73.96.42,2.08.42,3.43-.55,1.47-6.16.59-12.89,1.61-19.47.98-6.33.66-12.86.9-19.3.38-.05.76-.1,1.15-.15,11.18,19.39,22.36,38.78,33.59,58.27,29.36,12.49,58.59,24.91,87.92,37.39,30.15-12.47,60.23-24.92,90.06-37.25,11.22-18.93,22.18-37.44,33.15-55.95,1.42,6.54,1.24,12.66,1.47,18.76.24,6.03-.86,12.17.79,18.13,7.4-.9,77.49-30.02,100.3-41.67Z"/><path class="cls-1" d="m476.57,441.23c21.07-9.74,68.59-28.15,74.35-28.64-2.36,36.32-5.35,72.5-8.18,108.86,23.91-45.14,45.97-90.93,69.18-137.12,19.79-8.34,40.13-16.91,60.96-25.69,1.18,7.12.6,13.52-.09,19.79-.5,4.53-.83,9.04-.98,13.57-.67,19.24-2.49,38.39-4.31,57.55-.37,3.94-.05,7.94-.05,13.91,8.85-15.67,15.28-30.51,22.64-44.86,7.56-14.73,14.54-29.75,21.81-44.63,7.15-14.62,14.36-29.21,21.53-43.78,24.88-10.11,49.53-20.12,73.96-30.05.66.84.88,1.02.96,1.25.08.24.13.57.03.79-51.34,114.85-102.7,229.7-154.05,344.54-.11.24-.22.49-.72,1.57-22.69,10.86-46.67,20.5-70.92,31.11-1.85-7.25-.61-14.11-.61-20.85,0-6.94.76-13.87,1.01-20.81.25-6.96.31-13.92.37-20.88.06-6.9.01-13.8.01-21.29-4.16,3.9-5.35,9.37-7.89,13.94-2.86,5.13-5.26,10.52-7.76,15.85-2.38,5.08-5.2,9.92-7.29,15.17-2.15,5.44-5.25,10.49-7.86,15.75-2.49,5.02-4.86,10.09-7.32,15.13-2.57,5.28-5.17,10.54-7.77,15.81-2.49,5.03-5,10.05-7.79,15.67-24.24,10.76-48.85,21.7-73.85,32.8-1.97-3.57-.91-7.03-.7-10.26.67-10.39,2.11-20.75,2.38-31.15.5-18.99,3.11-37.81,4.07-56.76,1.12-22.15,3.05-44.25,4.68-66.37,2.06-27.97,4.16-55.94,6.25-83.91,1.07-14.39,2.15-28.78,3.26-43.17.08-1.03.47-2.03.67-2.85Z"/><path class="cls-1" d="m435.88,733.64c-22.44-9.89-44.85-19.78-67.08-29.58-17.3-34.24-34.37-68.04-51.45-101.83-3.07,8.1-2.53,16.29-3.52,24.29-1.06,8.47-1.41,17.05-1.78,25.59-.36,8.25-.78,16.46-2.43,25.57-23.95-10.25-47.4-20.29-71.14-30.45-50.92-116.44-101.85-232.93-152.8-349.45.93-1.46,2.21-1.02,3.41-.42,13.87,6.92,28.21,12.79,42.45,18.89,10.56,4.53,20.93,9.5,31.67,14.41,20.52,45.31,41.09,90.72,61.65,136.13,2.63-7.26,1.69-14.31,1.8-21.3.12-7.23-.08-14.46-.13-21.69-.06-7.23-.13-14.46-.18-21.69-.04-7.23-.06-14.46-.08-21.69-.01-7.13,0-14.26,0-22.26,19.7,8.16,39.04,16.16,58.37,24.16,21.12,45.55,42.11,90.82,63.1,136.09.5-.1.99-.2,1.49-.31-.17-17.89-.34-35.77-.49-53.66-.15-17.85-.6-35.7-.04-54.58,22.43,10.3,43.77,20.1,65.26,29.97.7,6.88,1.51,13.47,2.01,20.08.71,9.33,1.36,18.67,1.76,28.02.74,17.1,2.71,34.09,4.39,51.11.84,8.51.94,17.07,1.76,25.6,1.17,12.23,1.36,24.56,2.31,36.82,1.17,15.17,2.76,30.32,4.04,45.48.7,8.25,1,16.53,1.76,24.79,1.61,17.56,2.63,35.18,3.82,52.78.19,2.83,1.98,5.63.07,9.14Z"/><path class="cls-1" d="m95.52,274.8c104.52-34.97,209.04-69.94,313.98-105.06,20.84,6,42,12.1,63.68,18.34-4.39,3.48-36.66,15.39-65.36,24.93-22.04,7.32-43.93,15.12-65.85,22.82-21.81,7.66-43.57,15.45-65.42,24.62,5.87,2.19,11.73,4.42,17.61,6.56,11.03,4.01,22.2,7.66,33.09,12.03,7.29,2.93,13.96,3.35,21.65.81,28.9-9.54,58.03-18.38,87.07-27.53,33.35-10.51,66.69-21.08,100.04-31.59,8.14-2.57,16.32-5.02,24.8-7.63,20.58,5.22,41.43,10.51,64.27,16.29-9.49,5.28-18.35,6.88-26.43,10.32-8.58,3.65-17.59,6.33-26.41,9.43-8.56,3.01-17.14,5.97-25.67,9.06-8.78,3.17-17.5,6.54-26.29,9.69-8.55,3.06-17.27,5.67-25.72,8.98-8.46,3.31-17.11,6.03-25.67,9.04-8.82,3.1-17.54,6.47-26.32,9.68-8.49,3.11-17,6.17-25.77,9.35,4.38,3.52,48.31,21.39,78.32,32,6.84-2.24,14.22-4.52,21.5-7.07,12.11-4.23,24.46-7.68,36.57-11.93,15.86-5.57,32.06-10.15,48.08-15.26,10.44-3.33,20.79-6.9,31.22-10.26,20.08-6.47,40.2-12.82,60.29-19.29,12.2-3.93,24.39-7.9,36.52-12.05,4.75-1.63,9.24-1.72,14.12-.38,17.76,4.88,35.61,9.38,53.38,14.24,2.68.73,5.84.2,8.62,2.51-2.66,2.65-5.77,3.49-8.67,4.47-18.21,6.15-36.49,12.08-54.69,18.24-24.02,8.13-47.98,16.44-71.99,24.62-19.97,6.81-39.97,13.51-59.93,20.34-18.69,6.39-37.32,12.97-56.04,19.3-16.18,5.47-32.49,10.59-48.67,16.09-16.18,5.49-32.33,11.09-48.37,16.99-6.09,2.24-11.55,2.29-17.78.03-31.14-11.27-62.46-22.04-93.68-33.09-42.04-14.88-84.03-29.89-126.06-44.77-22.91-8.1-45.89-16.01-68.82-24.05-17.64-6.19-35.25-12.45-52.87-18.68-1.03-.36-1.95-.87-2.36-2.15Z"/></svg>