<?xml version="1.0" encoding="UTF-8"?><svg id="Logos" xmlns="http://www.w3.org/2000/svg" viewBox="0 0 900 900"><defs><style>.cls-1{fill:#fff;}</style></defs><g id="Camada_2"><path class="cls-1" d="m697.12,447.86l18.02-64.48c.95-1.9,2.84-3.79,4.74-2.84l12.33,3.79c1.9.95,3.79,2.84,2.84,4.74l-18.02,64.48c-.95,1.9-2.84,3.79-4.74,2.84l-12.33-3.79c-1.9,0-2.84-1.9-2.84-4.74Z"/><path class="cls-1" d="m620.31,415.62h14.22c1.9,0,3.79,1.9,3.79,3.79v98.61c0,1.9-1.9,3.79-3.79,3.79h-14.22c-1.9,0-3.79-1.9-3.79-3.79v-97.66c0-2.84,1.9-4.74,3.79-4.74Z"/><path class="cls-1" d="m220.17,562.6c.95,1.9,2.84,2.84,5.69,1.9l13.27-6.64c1.9-.95,2.84-2.84,1.9-4.74-28.45-54.05-78.7-90.08-95.77-100.51-1.9-.95-2.84-3.79-1.9-5.69,2.84-8.53,14.22-49.31,19.91-73.96,6.64-30.34-7.59-44.57-38.88-33.19-42.67,17.07-83.44,38.88-121.37,64.48-1.9.95-1.9,3.79-.95,5.69h0l8.53,12.33c.95,1.9,3.79,1.9,5.69.95h0c36.98-24.65,75.86-45.51,116.63-62.58,8.53-2.84,11.38-2.84,9.48,7.59-5.69,25.6-18.96,68.27-19.91,73.01-4.74,16.12-3.79,20.86,8.53,27.5.95,1.9,59.74,37.93,89.13,93.87h0Z"/><path class="cls-1" d="m87.42,415.62h14.22c1.9,0,3.79,1.9,3.79,3.79v98.61c0,1.9-1.9,3.79-3.79,3.79h-14.22c-1.9,0-3.79-1.9-3.79-3.79v-97.66c0-2.84,1.9-4.74,3.79-4.74Z"/><path class="cls-1" d="m753.06,562.6c.95,1.9,2.84,2.84,5.69,1.9l13.27-6.64c1.9-.95,2.84-2.84,1.9-4.74-27.5-54.05-78.7-90.08-95.77-100.51-1.9-.95-2.84-3.79-1.9-5.69,2.84-8.53,14.22-49.31,19.91-73.96,6.64-30.34-7.59-44.57-38.88-33.19-30.34,12.33-59.74,27.5-88.18,44.57h0c-1.9.95-2.84,3.79-.95,5.69h0l7.59,12.33c.95,1.9,3.79,1.9,5.69.95,27.5-16.12,55-30.34,84.39-42.67,8.53-2.84,11.38-2.84,9.48,7.59-5.69,25.6-18.96,68.27-19.91,73.96-4.74,16.12-3.79,20.86,8.53,27.5.95.95,59.74,36.98,89.13,92.92h0Z"/><path class="cls-1" d="m620.31,415.62h14.22c1.9,0,3.79,1.9,3.79,3.79v98.61c0,1.9-1.9,3.79-3.79,3.79h-14.22c-1.9,0-3.79-1.9-3.79-3.79v-97.66c0-2.84,1.9-4.74,3.79-4.74Z"/><path class="cls-1" d="m466.71,402.35l4.74-17.07c.95-1.9,2.84-3.79,4.74-2.84l12.33,3.79c1.9.95,3.79,2.84,2.84,4.74l-4.74,17.07c-.95,1.9-2.84,3.79-4.74,2.84l-12.33-3.79c-1.9,0-2.84-2.84-2.84-4.74Z"/><path class="cls-1" d="m714.19,368.21l4.74-17.07c.95-1.9,2.84-3.79,4.74-2.84l12.33,3.79c1.9.95,3.79,2.84,2.84,4.74l-4.74,17.07c-.95,1.9-2.84,3.79-4.74,2.84l-12.33-3.79c-1.9,0-2.84-2.84-2.84-4.74Z"/><path class="cls-1" d="m573.85,425.11c-8.53-6.64-20.86-.95-24.65.95l-9.48,4.74c-1.9.95-1.9,0-2.84-.95-.95-2.84-2.84-4.74-4.74-6.64-9.48-6.64-20.86,2.84-25.6,6.64l-28.45,23.71c-4.74,4.74-3.79-.95-2.84-1.9l6.64-24.65c.95-1.9-.95-4.74-2.84-4.74l-12.33-3.79c-1.9-.95-3.79.95-4.74,2.84l-16.12,56.89c-2.84,5.69,0,12.33,5.69,15.17,4.74,1.9,10.43.95,13.27-2.84l45.51-37.93c4.74-4.74,3.79.95,3.79,1.9l-10.43,36.03c-.95,1.9.95,3.79,2.84,4.74l12.33,3.79c1.9.95,4.74-.95,4.74-2.84l10.43-37.93c.95-1.9,1.9-3.79,4.74-4.74l18.02-8.53c1.9-.95,1.9,0,1.9,1.9l-10.43,45.51c0,1.9.95,4.74,2.84,4.74l12.33,2.84c1.9,0,4.74-.95,4.74-2.84l10.43-45.51c.95-5.69,3.79-19.91-4.74-26.55"/><path class="cls-1" d="m329.22,385.28l-4.74-12.33c-.95-1.9-2.84-2.84-4.74-1.9-15.17,5.69-73.01,26.55-78.7,29.39-15.17,5.69-18.02,11.38-19.91,19.91l-1.9,5.69c-1.9,7.59-5.69,14.22-10.43,19.91-11.38,10.43-18.02,4.74-18.02-3.79,0-12.33,6.64-21.81,19.91-29.39h0c1.9-.95,2.84-2.84,1.9-4.74l-5.69-11.38h0c-.95-1.9-2.84-2.84-5.69-1.9-26.55,14.22-32.24,33.19-31.29,47.41,0,25.6,27.5,40.77,52.15,18.96,8.53-8.53,14.22-18.02,16.12-29.39l1.9-4.74c.95-4.74,1.9-4.74,8.53-7.59s62.58-23.71,77.75-29.39c1.9-.95,3.79-2.84,2.84-4.74"/><path class="cls-1" d="m436.36,515.19l-57.84-56.89c-1.9-1.9-1.9-2.84.95-4.74,13.27-5.69,29.39-13.27,53.1-26.55h0c1.9-.95,2.84-3.79,1.9-5.69h0l-5.69-11.38h0c-.95-1.9-3.79-2.84-5.69-1.9-18.96,10.43-38.88,19.91-58.79,28.45-7.59,2.84-7.59,1.9-4.74-4.74,11.38-28.45,26.55-55,46.46-78.7h0c1.9-1.9,1.9-3.79,0-5.69l-9.48-8.53c-1.9-.95-3.79-.95-5.69,0-25.6,30.34-45.51,66.37-57.84,104.3-.95,3.79-4.74,6.64-8.53,8.53-19.91,8.53-40.77,14.22-61.63,18.96-3.79.95-8.53,0-2.84-6.64,6.64-7.59,14.22-15.17,23.71-20.86,1.9-.95,5.69-3.79,4.74-.95v1.9c0,1.9.95,3.79,2.84,4.74h0l12.33,3.79h0c1.9.95,3.79-.95,4.74-2.84h0l3.79-15.17c1.9-5.69,0-12.33-4.74-16.12-5.69-4.74-13.27-3.79-22.76.95-15.17,8.53-28.45,18.96-38.88,32.24-17.07,19.91-14.22,41.72,10.43,41.72,3.79,0,7.59,0,11.38-.95,17.07-3.79,33.19-8.53,49.31-14.22,5.69-1.9,6.64-1.9,4.74,3.79-3.79,14.22-7.59,27.5-10.43,39.82-.95,3.79-1.9,6.64-2.84,10.43-.95,1.9.95,3.79,2.84,4.74l12.33,2.84c1.9,0,3.79-.95,4.74-2.84.95-3.79,1.9-6.64,2.84-10.43,3.79-16.12,8.53-34.14,15.17-53.1.95-3.79,1.9-6.64,4.74-7.59h.95c3.79-.95,4.74-.95,7.59,1.9l63.53,62.58c1.9,1.9,3.79,1.9,5.69,0l9.48-9.48c.95-.95.95-3.79-1.9-5.69"/><path class="cls-1" d="m898.14,385.28l-4.74-12.33c-.95-1.9-2.84-2.84-4.74-1.9-15.17,5.69-73.01,26.55-78.7,29.39-15.17,5.69-18.02,11.38-19.91,19.91l-1.9,5.69c-1.9,7.59-5.69,14.22-10.43,19.91-11.38,10.43-18.02,4.74-18.02-3.79,0-13.27,8.53-24.65,19.91-29.39h0c1.9-.95,2.84-2.84,1.9-4.74l-5.69-11.38h0c-.95-1.9-2.84-2.84-4.74-1.9-26.55,14.22-32.24,33.19-31.29,47.41,0,25.6,27.5,40.77,52.15,18.96,8.53-8.53,14.22-18.02,16.12-29.39l1.9-4.74q.95-4.74,8.53-7.59c7.59-2.84,62.58-23.71,77.75-29.39,1.9-.95,2.84-2.84,1.9-4.74"/></g></svg>