<?xml version="1.0" encoding="utf-8"?>
<!-- Generator: Adobe Illustrator 27.5.0, SVG Export Plug-In . SVG Version: 6.00 Build 0)  -->
<svg version="1.1" baseProfile="tiny" id="Logos" xmlns="http://www.w3.org/2000/svg" xmlns:xlink="http://www.w3.org/1999/xlink"
	 x="0px" y="0px" viewBox="0 0 900 900" overflow="visible" xml:space="preserve">
<path fill-rule="evenodd" fill="#FFFFFF" d="M567.5,422.1c-15.6,47.9-59.4,85.1-115,85.1c-58.9,0-98.5-36.7-114.4-84
	c16.5,44.1,61.5,75.7,114.5,75.7S551.2,466.7,567.5,422.1 M337.8,349.1c15.7-47.7,52.7-84.6,114.7-84.6c57.6,0,99.9,37.4,115.2,85.6
	c-16-45-61.5-77.4-115.1-77.4S354.2,304.6,337.8,349.1"/>
<path fill-rule="evenodd" fill="#FFFFFF" d="M454.9,337.3c0.7-1.1,3-0.4,4.6-0.3c2.1,0,1.6,3.1,4.6,2.5c2.9-0.6,3,2.8,7.2,2.6
	c4.2-0.1-0.8,1.4-0.8,1.4s-2.6-1.2-4.3-0.4c-0.9,0.4,0.3-0.2-1.1-1.5c-2.3-1.9-2,0.4-5.9-2.9C456.3,336.5,453.7,339.1,454.9,337.3
	 M476,422c1.7,0.7,3.8,2.3,4.7,4.8c2.3,5.9-1.1,1.1-1.1,10.1c0,8.2-2.4,6.9-2.4,6.9s-0.5,9.7-5.6,15.7c-3.2,3.2-0.7,5.9-0.7,5.9
	s-1.1,0.6-2.7,7.6c-0.5,2.3,2.5,5.8,5,4.9c1.9-0.7-4.7-1.3,2.5-4.3c2.8-1.1,0.5-3.3,0.5-3.3s4.6-0.3,7.3-7.3
	c4.6,0.7,2.9-2.1,12.4-4.1c2.5-0.5,3-1.3,2.7-3.6c-0.3-2.3,3.1,0.3,12.5-9.1c7.4-7.5,4.7-9.2,9.9-11.9c5.4-2.9,5.9,0.2,7.7-2.1
	c4.2-5.3,2.7-5,4.4-8.4l1.2-1.9L476,422L476,422z M423.7,343.4c-1.5-3.8-1.4-9.8,1.9-15.5c2.1-3.5,7.6-5.1,12.4-3.2
	c5.4-4.2,6.7,0.3,11.5-1.7c6.3-2.7,2.8,7.1,8.8,9.6c2.5-6.6-5.7-11.6-0.6-14.7c3.7-2.2,6.5-3.6,8-6.6c2.2-4.2,3-7.3,4.6-7.9
	c3.8-1.3,3-4.9,3-4.9s4.1,1.2,7.2-1.8c-2.4-1.3-6-2.4-5-5c1.1-3,9.3,3.1,11.7-1.8c-4.9-2.1-9.9-6.6-12.8-7.7c-2,2.2-3.3,1.3-6-0.8
	c-4.5-3.5-4.8-0.2-7.6-2.6c-2.2,4.4,1.1,4.1,2.2,5.2c2.9,3.1-2.9-2.8-2.4,5.1c0.1,2-2.9,2.4-5.2-2c-1.2-2.3-10.7-1.8-12.1-4
	c1.3-2.6,12.5-11.7,29.6-9.5c-24.9-9.6-58.5,0.9-58.8,4.6c-3.4,2.1-2.2,4.4-3.9,5c-2.9,1-6.1,9.7-6.1,9.7s1.8,1.2-3.8,7.4
	c-4.6,5.1-6,12.9-6,12.9s3.1,5.5,2.5,11.9c-0.4,4.9-0.6,1.2,1.5,4.8c1.2,2.1,2.6,9.2,3.4,6.4c1.6-5.4-2.9-10.3-2.1-15.6
	c0.2,0.7,1.7-2.1,1.7,0.4c-0.2,6.6,8.2,19.2,8.2,19.2s-3.1,3.1,0.1,3.1L423.7,343.4L423.7,343.4z"/>
<path fill="#FFFFFF" d="M245.4,361h-18.9l2.8,3.3v24.4c0,5.5-3.7,7.8-9.2,7.8s-9.2-2.3-9.2-7.8v-24.4l2.8-3.3h-18.9l2.8,3.3v24.8
	c0,12.2,6.9,16.9,22.4,16.9s22.5-4.7,22.5-16.9v-24.8L245.4,361L245.4,361z"/>
<polygon fill="#FFFFFF" points="311,361 295.1,361 297.9,364.3 297.9,386.5 275,361 260.7,361 263.5,364.3 263.5,401.8 260.7,405.1 
	276.6,405.1 273.8,401.8 273.8,379.2 298.1,405.1 308.2,405.1 308.2,364.3 "/>
<polygon fill="#FFFFFF" points="347.7,405.1 344.9,401.8 344.9,364.3 347.7,361 328.7,361 331.5,364.3 331.5,401.8 328.7,405.1 "/>
<polygon fill="#FFFFFF" points="410.5,361 394.5,361 397.3,364.3 386,388.6 375.1,364.3 377.9,361 359.1,361 380,405.1 389.4,405.1 
	"/>
<polygon fill="#FFFFFF" points="463.9,405.1 463.9,393.1 460.5,395.9 437.6,395.9 437.6,387.5 452.1,387.5 455.4,390.2 455.4,375.9 
	452.1,378.6 437.6,378.6 437.6,370.2 460.5,370.2 463.9,373 463.9,361 421.7,361 424.5,364.3 424.5,401.8 421.7,405.1 "/>
<path fill-rule="evenodd" fill="#FFFFFF" d="M528.1,405.1L516,387.7c6-2.4,10.1-7,10.1-13.4c0-7.4-4.6-13.4-17.3-13.4h-28l2.8,3.3
	v37.6l-2.8,3.3h18.8l-2.8-3.3v-12.5h5.6l8.6,12.5l-2.8,3.3L528.1,405.1L528.1,405.1z M512.7,375.3c0,3.2-3.1,5.8-7.4,5.8h-8.5v-10.9
	h10.1C509.9,370.2,512.7,371.6,512.7,375.3"/>
<path fill="#FFFFFF" d="M584.9,392.2c0-7-5.7-10.9-14-13.6c-5.4-1.6-13-2.8-13-6.4c0-1.7,2.1-2.9,5.7-2.9c4.8,0,12.8,2,19,4.9v-14.8
	l-3.6,3.4c-3.8-1.5-10.3-3.1-14.8-3.1c-15.2,0-20.2,6.6-20.2,12.7c0,8.2,5.5,11.8,14.2,14.8c6.4,2.2,12.4,2.4,12.4,6
	c0,3.1-3.7,3.5-5.6,3.5c-4.8,0-13.2-1.7-20.8-6.5v16.4l3.6-3.8c3.5,1.3,11.4,3.6,17.8,3.6C579,406.3,584.9,400.6,584.9,392.2"/>
<path fill-rule="evenodd" fill="#FFFFFF" d="M652,405.1l-22-44.2h-15.1l1.6,3.3l-20,40.9h16.5l-2.8-3.3l2.2-4.6h21.4l2.2,4.6
	l-2.8,3.3L652,405.1L652,405.1z M630.4,389.2h-14.9l7.4-15.8L630.4,389.2L630.4,389.2z"/>
<polygon fill="#FFFFFF" points="705.1,405.1 705.1,393.1 701.7,395.9 680.2,395.9 680.2,364.3 683,361 664.2,361 667,364.3 
	667,401.8 664.2,405.1 "/>
<path fill="#FFFFFF" d="M693.1,367.1c0,3.1,2.5,5.6,5.7,5.6s5.7-2.5,5.7-5.6s-2.5-5.6-5.7-5.6C695.7,361.5,693.1,364,693.1,367.1
	 M692.5,367.1c0-3.4,2.8-6.2,6.2-6.2s6.3,2.8,6.3,6.2s-2.8,6.2-6.3,6.2S692.5,370.5,692.5,367.1"/>
<path fill-rule="evenodd" fill="#FFFFFF" d="M701.2,364.7c-0.6-0.5-1.4-0.8-2.2-0.8c-1.8,0-3.2,1.4-3.2,3.2s1.3,3.2,3.2,3.2
	c0.8,0,1.7-0.3,2.3-0.9v-0.8c-0.6,0.7-1.4,1.1-2.3,1.1c-1.5,0-2.6-1.3-2.6-2.7s1.1-2.6,2.6-2.6c0.9,0,1.6,0.4,2.2,1L701.2,364.7
	L701.2,364.7L701.2,364.7z"/>
<path fill="#FEFEFE" d="M166.8,556.6l-1.9,2.2v16.8c0,2.1-0.3,3.8-0.9,5.3c-0.6,1.4-1.6,2.6-2.8,3.5c-1.2,0.9-2.8,1.6-4.8,2
	s-4.3,0.6-7,0.6s-5.1-0.2-7-0.6c-1.9-0.4-3.5-1.1-4.8-2c-1.2-0.9-2.2-2.1-2.8-3.5s-0.9-3.2-0.9-5.3v-16.8l-1.9-2.2h13.1l-1.9,2.2
	v16.5c0,1.8,0.6,3.1,1.7,4s2.7,1.3,4.7,1.3s3.5-0.4,4.7-1.3s1.7-2.2,1.7-4v-16.5l-1.9-2.2L166.8,556.6L166.8,556.6z"/>
<path fill="#FEFEFE" d="M216.8,556.6l-1.9,2.2v27.7h-7l-16.8-17.6v15.3l1.9,2.2h-11l1.9-2.2v-25.4l-1.9-2.2h9.9l15.8,17.3v-15.1
	l-1.9-2.2L216.8,556.6L216.8,556.6z"/>
<path fill="#FEFEFE" d="M246.8,586.5h-13.1l1.9-2.2v-25.4l-1.9-2.2h13.1l-1.9,2.2v25.4L246.8,586.5z"/>
<path fill="#FEFEFE" d="M295,556.6l-14.6,29.9H274l-14.4-29.9h13l-2,2.2l7.5,16.5l7.8-16.5l-2-2.2H295L295,556.6z"/>
<path fill="#FEFEFE" d="M336.7,586.5h-29.1l2-2.2v-25.4l-2-2.2h29.1v8.1l-2.3-1.9h-15.8v5.7h10l2.3-1.9v9.7l-2.3-1.9h-10v5.7h15.8
	l2.3-1.9L336.7,586.5L336.7,586.5L336.7,586.5z"/>
<path fill="#FEFEFE" d="M385.9,586.5h-13.8l2-2.2l-5.9-8.5h-3.9v8.5l2,2.2h-12.9l2-2.2v-25.4l-2-2.2h19.3c4.2,0,7.2,0.8,9.1,2.5
	s2.9,3.8,2.9,6.6c0,2.1-0.6,3.9-1.9,5.5s-3,2.7-5.1,3.6L385.9,586.5L385.9,586.5z M375.2,566.3c0-0.8-0.2-1.4-0.6-2
	s-0.9-0.9-1.5-1.1s-1.3-0.4-2-0.4h-7v7.3h5.9c1.5,0,2.7-0.4,3.6-1.1S375.2,567.4,375.2,566.3L375.2,566.3z"/>
<path fill="#FEFEFE" d="M429.8,577.8c0,1.5-0.3,2.7-0.8,3.9c-0.5,1.2-1.3,2.2-2.4,3c-1.1,0.8-2.5,1.5-4.1,2
	c-1.7,0.5-3.6,0.7-5.9,0.7c-1.4,0-2.9-0.1-4.4-0.4s-3.1-0.6-4.6-1c-1.5-0.4-2.6-0.8-3.3-1l-2.5,2.6v-11.1c2.4,1.5,4.9,2.6,7.5,3.3
	c2.6,0.7,4.9,1.1,6.8,1.1c1,0,1.9-0.2,2.7-0.5s1.2-1,1.2-1.9c0-0.7-0.4-1.3-1-1.7c-0.7-0.4-2-0.8-3.8-1.3c-1.9-0.5-3.1-0.8-3.7-1
	c-3.3-1.1-5.8-2.4-7.4-3.9c-1.6-1.5-2.4-3.5-2.4-6.1c0-1.5,0.5-2.8,1.4-4.1s2.4-2.3,4.5-3.2c2.1-0.8,4.8-1.2,8.1-1.2
	c0.8,0,1.6,0,2.4,0.2c0.9,0.1,1.8,0.3,2.9,0.5s2,0.5,2.8,0.7c0.8,0.2,1.5,0.5,2.1,0.8l2.5-2.3v10c-1.5-0.7-3-1.3-4.6-1.8
	c-1.6-0.5-3.1-0.9-4.6-1.2s-2.8-0.4-3.9-0.4c-1.2,0-2.2,0.2-2.9,0.5c-0.7,0.4-1,0.8-1,1.4s0.3,1,0.8,1.5c0.5,0.4,1.2,0.8,2,1.1
	c0.8,0.3,1.9,0.6,3.2,1c1.3,0.4,2.3,0.6,2.9,0.8c3.1,1,5.5,2.2,7.1,3.6S429.8,575.5,429.8,577.8L429.8,577.8z"/>
<path fill="#FEFEFE" d="M480.9,586.5h-13.1l2-2.2l-1.5-3.2h-14.8l-1.5,3.2l2,2.2h-11.4l13.8-27.7l-1.1-2.2h10.5L480.9,586.5
	L480.9,586.5z M466,575.8l-5.1-10.7l-5.1,10.7H466L466,575.8z"/>
<path fill="#FEFEFE" d="M522.3,586.5h-28.2l2-2.2v-25.4l-2-2.2h12.9l-2,2.2v21.4H520l2.3-1.9V586.5L522.3,586.5L522.3,586.5z"/>
<path fill="#FEFEFE" d="M599.9,586.5h-12.7l2-2.2v-14.3l-8.2,16.6h-4.3l-9.3-16.8v14.6l2,2.2h-10.7l2-2.2v-25.4l-2-2.2h10.9
	l10.1,18.3l9.2-18.3h11.1l-2,2.2v25.4L599.9,586.5L599.9,586.5z"/>
<path fill="#FEFEFE" d="M650.2,556.6l-2,2.2v16.8c0,2.1-0.3,3.8-0.9,5.3c-0.6,1.4-1.5,2.6-2.8,3.5s-2.8,1.6-4.8,2s-4.3,0.6-7,0.6
	s-5.1-0.2-7-0.6s-3.5-1.1-4.8-2c-1.2-0.9-2.2-2.1-2.8-3.5s-0.9-3.2-0.9-5.3v-16.8l-2-2.2h13l-2,2.2v16.5c0,1.8,0.6,3.1,1.7,4
	s2.7,1.3,4.7,1.3s3.5-0.4,4.7-1.3s1.7-2.2,1.7-4v-16.5l-2-2.2L650.2,556.6L650.2,556.6z"/>
<path fill="#FEFEFE" d="M693.2,577.8c0,1.5-0.3,2.7-0.8,3.9c-0.5,1.2-1.3,2.2-2.4,3c-1.1,0.8-2.5,1.5-4.1,2
	c-1.7,0.5-3.6,0.7-5.9,0.7c-1.4,0-2.8-0.1-4.4-0.4s-3.1-0.6-4.6-1c-1.5-0.4-2.6-0.8-3.3-1l-2.5,2.6v-11.1c2.4,1.5,4.9,2.6,7.5,3.3
	s4.9,1.1,6.8,1.1c1,0,1.9-0.2,2.7-0.5s1.2-1,1.2-1.9c0-0.7-0.3-1.3-1-1.7c-0.7-0.4-2-0.8-3.8-1.3c-1.9-0.5-3.1-0.8-3.7-1
	c-3.3-1.1-5.8-2.4-7.4-3.9c-1.6-1.5-2.4-3.5-2.4-6.1c0-1.5,0.5-2.8,1.3-4.1s2.4-2.3,4.5-3.2s4.8-1.2,8.1-1.2c0.8,0,1.6,0,2.4,0.2
	s1.8,0.3,2.8,0.5s2,0.5,2.8,0.7c0.8,0.2,1.5,0.5,2.2,0.8l2.5-2.3v10c-1.5-0.7-3-1.3-4.6-1.8c-1.6-0.5-3.2-0.9-4.6-1.2
	c-1.5-0.3-2.8-0.4-3.8-0.4c-1.2,0-2.2,0.2-2.9,0.5c-0.7,0.4-1,0.8-1,1.4s0.3,1,0.8,1.5c0.5,0.4,1.2,0.8,2,1.1c0.8,0.3,1.9,0.6,3.2,1
	c1.3,0.4,2.3,0.6,2.9,0.8c3.1,1,5.5,2.2,7.2,3.6C692.3,573.7,693.2,575.5,693.2,577.8L693.2,577.8z"/>
<path fill="#FEFEFE" d="M722.8,586.5h-13.1l2-2.2v-25.4l-2-2.2h13.1l-2,2.2v25.4L722.8,586.5z"/>
<path fill="#FEFEFE" d="M768.1,584.4c-0.6,0.3-1.3,0.6-2.2,1c-0.9,0.3-1.9,0.6-3,0.9c-1.1,0.2-2.2,0.5-3.5,0.7
	c-1.2,0.2-2.4,0.3-3.5,0.3c-2.4,0-4.7-0.3-6.8-0.9c-2.1-0.6-4-1.5-5.7-2.8c-1.7-1.3-3-2.9-3.9-4.9s-1.4-4.3-1.4-7
	c0-2.2,0.4-4.2,1.2-6.1c0.8-1.9,2-3.5,3.6-5c1.6-1.4,3.5-2.5,5.8-3.3c2.3-0.8,4.9-1.2,7.8-1.2c1.2,0,2.3,0.1,3.5,0.2
	c1.2,0.2,2.3,0.3,3.3,0.6c1,0.2,1.9,0.5,2.8,0.8l2.1-2v10c-1.2-0.7-2.3-1.3-3.5-1.7c-1.2-0.5-2.4-0.8-3.7-1.1
	c-1.3-0.2-2.7-0.4-4.1-0.4c-3.1,0-5.3,0.8-6.8,2.5c-1.5,1.7-2.2,3.9-2.2,6.5c0,1.8,0.4,3.4,1.2,4.8s1.9,2.5,3.3,3.2
	c1.4,0.8,3.1,1.1,4.9,1.1c1.7,0,3.3-0.2,4.7-0.5s2.6-0.8,3.5-1.2c0.9-0.5,1.9-1,2.8-1.5L768.1,584.4L768.1,584.4L768.1,584.4z"/>
<path fill="#FFFFFF" d="M730.3,634.2c0-0.1,0-0.2,0-0.2c1.4-1.1,1.7-2.6,1.6-4.3c-0.1-3.1,0-6.2,0-9.2v-0.8c-0.1,0-0.1,0-0.2-0.1
	c-2.5,4.8-4.9,9.7-7.4,14.5h-3.9c-2.7-5.1-5.5-10.3-8.2-15.4c0,0-0.1,0-0.2,0.1v13.2c0.5,0.7,1.1,1.3,1.8,2.2h-10
	c0.5-0.6,0.8-1.1,1.3-1.5c0.5-0.5,0.7-1,0.7-1.7c0-7.2,0-14.3,0-21.5c0-1-0.1-1.8-0.8-2.5c-0.2-0.2-0.3-0.5-0.6-0.8h9.8
	c3,5.5,5.9,11.2,9,17c2.9-5.7,5.8-11.4,8.7-17h10.2c-0.7,0.8-1.2,1.5-1.8,2.2v24.2c0.4,0.6,1,1,1.3,1.7L730.3,634.2L730.3,634.2z"/>
<path fill="#FFFFFF" d="M480.8,632.1c-1.8-2.6-3.5-5.3-5.3-7.9h-3.6c-0.2,0.3-0.1,0.6-0.1,0.9c0,2,0,4,0,6c0,0.7,0.1,1.3,0.6,1.8
	c0.4,0.4,0.7,0.8,1.1,1.3h-11.4c0.4-0.8,1.1-1.3,1.5-2c0-0.3,0-0.6,0-0.9c0-7.4,0-14.7,0-22.1c0-0.9-0.2-1.6-0.8-2.2
	c-0.3-0.2-0.5-0.5-0.7-0.8c0.2-0.3,0.5-0.2,0.8-0.2c5.8,0,11.6,0,17.4,0c1.5,0,3.1,0.2,4.5,0.7c4,1.3,5.5,4.1,5.5,7.9
	c0,1.6-0.3,3.2-1.1,4.7c-1,1.8-2.5,2.8-4.3,3.4c-0.3,0.1-0.5,0.2-1,0.3c2.5,3.7,5,7.4,7.6,11.1h-12.4
	C479.6,633.4,480.3,632.9,480.8,632.1L480.8,632.1z M471.8,618.8c2.5-0.1,4.9,0.2,7.2-0.1c1-0.1,1.9-0.6,2.4-1.6
	c1.2-2.4,0-4.7-2.6-5.1c-2.3-0.3-4.6-0.1-6.8-0.1c0,0-0.1,0.1-0.1,0.1L471.8,618.8L471.8,618.8z"/>
<path fill="#FFFFFF" d="M340.4,606.1c-0.1,0.2-0.1,0.3-0.2,0.4c-1.3,1.1-1.5,2.5-1.4,4.1c0.1,7.5,0,15,0,22.6c0,0.3,0,0.6,0,1h-6.4
	c-5-5.4-10-10.8-15-16.3c-0.2,0.3-0.1,0.7-0.1,0.9c0,4,0,8.1,0,12.1c0,0.8,0.1,1.5,0.8,2.1c0.3,0.3,0.5,0.7,0.9,1.1h-9.7
	c0.2-0.2,0.3-0.4,0.4-0.5c1-0.9,1.2-2.1,1.1-3.4c0-6.9,0-13.8,0-20.7c0-0.8-0.1-1.5-0.7-2.2c-0.3-0.3-0.5-0.7-0.9-1.2h8.8
	c4.7,5.3,9.4,10.6,14.2,16c0.2-0.2,0.2-0.4,0.2-0.6c0-4.2,0-8.5,0-12.8c0-0.5-0.1-0.8-0.4-1.2c-0.4-0.4-0.7-0.9-1.1-1.4L340.4,606.1
	L340.4,606.1z"/>
<path fill="#FFFFFF" d="M215.2,634.2h-6.3c-5-5.4-10-10.8-15.1-16.3c-0.2,0.4-0.1,0.7-0.1,1c0,4,0,8,0,12c0,0.9,0.1,1.6,0.8,2.2
	c0.3,0.3,0.5,0.7,0.9,1.1h-9.6c0-0.2,0.2-0.4,0.3-0.5c1-0.9,1.1-2,1.1-3.2c-0.1-6.9,0-13.9,0-20.8c0-1-0.2-1.7-0.9-2.5
	c-0.2-0.3-0.5-0.5-0.6-1h8.7c4.7,5.3,9.5,10.7,14.2,16c0.2-0.4,0.1-0.7,0.1-1c0-3.9,0-7.9,0-11.8c0-0.9-0.1-1.7-0.8-2.3
	c-0.3-0.2-0.5-0.6-0.8-1h9.6c-0.2,0.5-0.6,0.9-1,1.4c-0.4,0.5-0.6,1-0.6,1.7c0,8,0,16,0,24C215.2,633.5,215.2,633.8,215.2,634.2
	L215.2,634.2z"/>
<path fill="#FFFFFF" d="M671.6,606.1h9.7c-0.5,0.6-0.8,1.2-1.3,1.6c-0.4,0.4-0.4,0.8-0.4,1.3c0,8,0,16.1,0,24.2v1h-6.3
	c-5-5.4-10-10.8-15-16.3c-0.3,0.2-0.2,0.4-0.2,0.6c0,4.3,0,8.7,0,13c0,0.5,0.1,0.8,0.4,1.1c0.4,0.5,0.8,0.9,1.2,1.5h-9.6
	c0.3-0.6,0.7-1,1.1-1.4c0.3-0.3,0.4-0.7,0.4-1.1c0-7.6,0-15.2,0-22.8c0-0.4-0.1-0.7-0.3-1c-0.4-0.5-0.8-1-1.2-1.7h8.8
	c4.7,5.2,9.4,10.6,14.2,16c0.3-0.1,0.2-0.3,0.2-0.5c0-4.3,0-8.6,0-12.9c0-0.4-0.1-0.7-0.4-1C672.4,607.2,672,606.7,671.6,606.1
	L671.6,606.1z"/>
<path fill="#FFFFFF" d="M820.8,606.1c4.7,5.3,9.5,10.7,14.2,16l0.2-0.1v-0.8c0-4,0-7.9,0-11.9c0-0.9-0.2-1.6-0.8-2.2
	c-0.3-0.3-0.5-0.6-0.8-1h9.6c-0.2,0.6-0.6,1-1,1.4c-0.5,0.5-0.6,1-0.6,1.7c0,8,0,15.9,0,23.9v1h-6.3c-5-5.4-10-10.8-15.1-16.3
	c-0.2,0.4-0.1,0.7-0.1,1c0,4.1,0,8.1,0,12.2c0,0.8,0.1,1.4,0.7,2c0.3,0.3,0.6,0.7,0.9,1.1h-9.6c0-0.3,0.2-0.4,0.3-0.6
	c0.9-0.8,1.1-1.9,1.1-3.1c0-7,0-14,0-21c0-0.9-0.2-1.6-0.8-2.3c-0.2-0.3-0.5-0.6-0.7-1L820.8,606.1L820.8,606.1z"/>
<path fill="#FFFFFF" d="M260.2,606.1h26.5v7.5c-0.6-0.5-1.2-0.9-1.7-1.3c-0.2-0.2-0.5-0.4-0.9-0.4c-4.5,0-9.1,0-13.6,0
	c-0.1,0-0.1,0-0.3,0.1v5.3c0.3,0.2,0.6,0.1,0.8,0.1c2.4,0,4.8,0,7.2,0c0.8,0,1.4-0.2,1.9-0.7c0.3-0.3,0.7-0.6,1.2-1v8.8
	c-0.6-0.3-1-0.7-1.4-1.1c-0.4-0.4-0.9-0.5-1.4-0.5c-2.5,0-4.9,0-7.4,0c-0.3,0-0.5,0-0.8,0v5.5c0.2,0.2,0.5,0.1,0.8,0.1
	c4.1,0,8.3,0,12.4,0c0.7,0,1.3-0.2,1.8-0.7c0.4-0.4,0.9-0.7,1.4-1.1v7.4h-26.3c0.3-0.6,0.7-1,1.1-1.4c0.3-0.4,0.5-0.8,0.5-1.3
	c0-7.4,0-14.8,0-22.2c0-0.7-0.1-1.3-0.7-1.9C260.9,607,260.7,606.6,260.2,606.1L260.2,606.1z"/>
<path fill="#FFFFFF" d="M413.7,606.1h26.4v7.4c-0.6-0.3-1.1-0.8-1.7-1.2c-0.3-0.2-0.5-0.4-0.9-0.4c-4.5,0-9,0-13.5,0
	c-0.1,0-0.2,0-0.4,0v5.3c0.3,0.2,0.6,0.1,0.9,0.1c2.4,0,4.7,0,7.1,0c0.8,0,1.4-0.2,2-0.7c0.3-0.3,0.7-0.6,1.2-1v8.7
	c-0.2,0-0.4-0.1-0.5-0.3c-1-1.2-2.2-1.4-3.7-1.3c-2.3,0.1-4.6,0-6.9,0v5.5c0.3,0.2,0.6,0.1,0.8,0.1c4.1,0,8.2,0,12.4,0
	c0.7,0,1.3-0.1,1.9-0.7c0.4-0.4,0.9-0.7,1.4-1.1v7.4h-26.4c0.3-0.4,0.6-0.8,0.9-1.2c0.6-0.5,0.7-1.2,0.7-2c0-7.2,0-14.4,0-21.6
	c0-0.9-0.1-1.6-0.8-2.2C414.2,606.9,414,606.5,413.7,606.1L413.7,606.1z"/>
<path fill="#FFFFFF" d="M763.2,634.1c0.5-0.6,0.9-1.2,1.3-1.7c0.2-0.3,0.3-0.5,0.3-0.9c0-7.6,0-15.2,0-22.9c0-0.4-0.1-0.7-0.4-1
	c-0.4-0.5-0.8-1-1.3-1.6h26.4v7.4c-0.5-0.4-1-0.8-1.5-1.2c-0.4-0.4-0.9-0.5-1.5-0.5c-4.2,0-8.4,0-12.6,0h-0.9v5.4
	c0.3,0.2,0.6,0.1,0.9,0.1c2.4,0,4.8,0,7.2,0c0.8,0,1.4-0.2,1.9-0.7c0.3-0.3,0.7-0.6,1.2-1v8.8c-0.6-0.2-1.1-0.8-1.6-1.2
	c-0.2-0.2-0.5-0.4-0.8-0.4c-2.8,0-5.7,0-8.5,0c0,0-0.1,0-0.2,0.1v5.4c0.2,0.2,0.6,0.1,0.8,0.1c4.2,0,8.3,0,12.4,0
	c0.7,0,1.3-0.1,1.8-0.6c0.4-0.4,0.9-0.7,1.4-1.1v7.4L763.2,634.1L763.2,634.1z"/>
<path fill="#FFFFFF" d="M59.7,632.1c0.5,0.7,1,1.4,1.6,2.1H51.2c4.2-8.7,8.3-17.3,12.5-26c-0.3-0.6-0.6-1.3-0.9-2.1h9.5
	c4.6,9.3,9.1,18.7,13.7,28.1H74.3c0.4-0.8,1.1-1.3,1.5-2.2c-0.4-0.9-0.8-1.8-1.2-2.8H61.1C60.7,630.2,60.2,631.1,59.7,632.1
	L59.7,632.1z M63.1,624h9.3c-1.6-3.3-3.1-6.6-4.6-10C66.2,617.4,64.7,620.7,63.1,624z"/>
<path fill="#FFFFFF" d="M594.4,634.2h-11.7c0.6-0.8,1.1-1.4,1.6-2.1c-0.4-1-0.8-1.9-1.2-2.9h-13.5c-0.5,0.9-0.9,1.9-1.4,2.9
	c0.5,0.7,1,1.4,1.6,2.2h-10.2c4.2-8.7,8.3-17.3,12.5-26c-0.2-0.7-0.6-1.3-0.8-2.1h9.5C585.2,615.4,589.8,624.8,594.4,634.2
	L594.4,634.2z M580.9,624c-1.6-3.4-3.1-6.6-4.6-10.1c-1.6,3.4-3.2,6.7-4.7,10.1H580.9L580.9,624z"/>
<path fill="#FFFFFF" d="M885.8,634.2h-11.6c0.3-0.7,0.8-1.1,1.2-1.6c0.2-0.3,0.4-0.5,0.4-0.9c0-6.1,0-12.3,0-18.4c0-0.1,0-0.2,0-0.3
	c-0.2-0.2-0.4-0.2-0.6-0.2c-2.2,0-4.4,0-6.6,0c-0.4,0-0.7,0.1-1,0.4c-0.5,0.4-1,0.8-1.6,1.3v-8.3H894v8.1c-0.3,0-0.5-0.2-0.6-0.3
	c-0.9-1-2-1.2-3.3-1.2c-1.7,0.1-3.3,0-5,0c-0.3,0-0.6-0.1-0.9,0.1c-0.2,0.3-0.1,0.6-0.1,0.9c0,5.7,0,11.4,0,17.1
	c0,0.9,0.1,1.7,0.8,2.4C885.2,633.4,885.4,633.8,885.8,634.2L885.8,634.2z"/>
<path fill="#FFFFFF" d="M106.1,606.1h28v8.1c-0.3,0-0.4-0.2-0.6-0.3c-0.9-1-1.9-1.2-3.2-1.2c-2,0.1-4,0-5.9,0
	c-0.2,0.4-0.2,0.7-0.2,1c0,5.7,0,11.4,0,17c0,0.9,0.1,1.7,0.8,2.3c0.3,0.2,0.5,0.6,0.8,1h-11.5c0-0.2,0.2-0.3,0.3-0.4
	c1.2-1,1.4-2.3,1.4-3.8c-0.1-5.4,0-10.7,0-16.1c0-0.3,0.1-0.6-0.1-0.9c-0.3-0.2-0.6-0.1-0.8-0.1c-1.9,0-3.8,0-5.7,0
	c-0.8,0-1.5,0.1-2.1,0.7c-0.3,0.3-0.7,0.5-1.1,0.9L106.1,606.1L106.1,606.1z"/>
<path fill="#FFFFFF" d="M391.1,606.1v8.2c-0.6-0.3-1-0.8-1.5-1.2c-0.2-0.2-0.4-0.3-0.7-0.3c-2.5,0-5,0-7.5,0c-0.3,0.3-0.2,0.7-0.2,1
	c0,5.8,0,11.5,0,17.3c0,0.8,0.2,1.5,0.8,2.1c0.3,0.3,0.5,0.7,0.8,1.1h-11.6c0.6-0.7,1.1-1.4,1.7-2.1v-19.1c-0.3-0.2-0.6-0.2-0.9-0.2
	c-1.9,0-3.9,0-5.8,0c-0.8,0-1.4,0.1-2,0.7c-0.3,0.3-0.7,0.5-1.1,0.9v-8.2L391.1,606.1L391.1,606.1z"/>
<path fill="#FFFFFF" d="M512.3,614.4v-8.2h28v8.1c-0.6-0.3-1-0.8-1.5-1.1c-0.2-0.2-0.4-0.3-0.7-0.3c-2.5,0-5,0-7.5,0
	c-0.3,0.3-0.2,0.7-0.2,1c0,5.8,0,11.5,0,17.3c0,0.8,0.2,1.5,0.8,2.1c0.3,0.3,0.5,0.7,0.8,1.1h-11.6c0.6-0.7,1.1-1.4,1.7-2.1v-19.1
	c-0.3-0.2-0.6-0.2-0.9-0.2c-1.9,0-3.9,0-5.8,0c-0.8,0-1.4,0.1-2,0.7C513.2,613.8,512.8,614,512.3,614.4L512.3,614.4z"/>
<path fill="#FFFFFF" d="M31.6,626.7v7.5H6.1c0.2-0.5,0.6-0.9,1-1.3c0.6-0.6,0.7-1.2,0.7-2c0-7.1,0-14.2,0-21.4c0-1-0.2-1.8-0.9-2.4
	c-0.3-0.3-0.5-0.6-0.8-1h11.4c-0.2,0.5-0.5,0.9-0.9,1.2c-0.5,0.5-0.6,1.2-0.6,1.9c0,6.1,0,12.1,0,18.2c0,0.3,0,0.6,0,0.9
	c0.3,0.2,0.6,0.1,0.9,0.1c3.7,0,7.4,0,11.2,0c0.8,0,1.4-0.1,2-0.7C30.5,627.4,31,627.1,31.6,626.7L31.6,626.7z"/>
<path fill="#FFFFFF" d="M150.8,606.1h11.7c-0.6,0.7-1.1,1.4-1.6,2v13c0,3.3,0,6.5,0,9.8c0,0.8,0.2,1.5,0.8,2.1
	c0.3,0.3,0.5,0.6,0.8,1H151c0-0.2,0.1-0.4,0.3-0.5c1.1-1,1.3-2.2,1.3-3.6c-0.1-6.9,0-13.8,0-20.7c0-0.8-0.1-1.5-0.8-2.2
	C151.4,606.9,151.2,606.6,150.8,606.1L150.8,606.1z"/>
<path fill="#FFFFFF" d="M615.2,606.1h11.7c-0.6,0.7-1.1,1.4-1.6,2c0,4.2,0,8.5,0,12.7c0,3.4,0,6.8,0,10.1c0,0.8,0.2,1.5,0.8,2.1
	c0.3,0.3,0.5,0.6,0.8,1h-11.5c0-0.2,0.2-0.4,0.3-0.5c1.1-1,1.3-2.2,1.3-3.6c-0.1-6.9,0-13.8,0-20.7c0-0.8-0.1-1.5-0.8-2.2
	C615.9,606.9,615.6,606.6,615.2,606.1L615.2,606.1z"/>
</svg>
