<?xml version="1.0" encoding="UTF-8"?><svg id="Layer_1" xmlns="http://www.w3.org/2000/svg" viewBox="0 0 800 560"><defs><style>.cls-1{fill:#fff;}</style></defs><path class="cls-1" d="m689.52,278.39c-.11-.4-.19-.6-.22-.81-.56-3.82-.9-7.68-1.71-11.44-2.41-11.21-9.19-17.29-20.55-18.88-2.79-.39-5.55-1.1-8.32-1.68-.27-.06-.53-.22-.79-.34.29-.1.57-.25.86-.29,3.81-.54,7.7-.3,11.48-1.3,10.18-2.7,16.1-9.57,17.7-20.68.44-3.06.89-6.13,1.34-9.19.02-.15.12-.3.18-.45.05.15.12.3.16.46,1.04,3.8.85,7.78,1.65,11.61,2.69,12.98,13.23,18.64,23.76,19.21,1.78.1,3.56.04,5.31.46.22.05.42.15.63.22-.26.07-.51.14-.77.19-5.12.98-10.3,1.67-15.22,3.57-9.37,3.6-12.9,11.31-14.23,20.62-.38,2.7-.73,5.4-1.09,8.1-.02.14-.07.28-.17.62Z"/><path class="cls-1" d="m626.05,170.78c.1.35.16.56.21.78.76,3.36.78,6.83,1.63,10.19,2.24,8.89,7.89,13.9,16.67,15.48,2.64.48,5.28.98,7.91,1.49.21.04.4.16.6.24-.21.08-.42.2-.64.22-4.37.41-8.7.86-12.86,2.55-7.52,3.07-10.84,9.11-12.13,16.75-.43,2.56-.81,5.13-1.22,7.7-.04.23-.18.44-.28.66-.07-.22-.19-.43-.22-.65-.53-3.6-.82-7.26-1.6-10.8-2.12-9.61-9.01-13.76-17.83-15.43-2.15-.41-4.37-.43-6.55-.65-.25-.02-.49-.16-.74-.24.19-.11.37-.29.57-.33,3.43-.72,6.87-1.4,10.31-2.13,8.88-1.9,13.17-8.05,14.75-16.61.52-2.79.81-5.63,1.22-8.45.03-.21.11-.42.2-.76Z"/><path class="cls-1" d="m659.47,341.22c-.13-.52-.23-.75-.24-.98-.25-5.05-1-9.92-3.72-14.35-3.12-5.09-8.18-6.49-13.39-7.72-1.75-.41-3.52-.75-5.28-1.14-.16-.04-.29-.21-.44-.33.18-.07.35-.18.53-.2,2.5-.27,5.03-.38,7.49-.82,8.01-1.44,12.55-6.55,14.22-15.94.34-1.89.42-3.83.62-5.75.02-.17.05-.34.08-.51.07.17.17.33.21.5.61,3.23,1.08,6.49,1.84,9.69,1.78,7.45,7.1,10.89,14.01,12.41,2.25.49,4.53.21,6.79.31.2,0,.39.08.59.12-.18.12-.34.27-.53.37-1.97.95-4.16.99-6.25,1.48-10.48,2.45-14.63,7.35-15.57,18.42-.1,1.18-.28,2.36-.46,3.53-.03.23-.23.44-.5.92Z"/><path class="cls-1" d="m266.85,266.91c51.39,0,102.78.11,154.17-.07,13.37-.05,25.33,3.37,36.65,10.56,36.35,23.09,73.17,45.45,109.3,68.87,11.53,7.47,24.41,9.13,36.91,12.36,56.16,14.53,112.48,28.44,168.73,42.66,11.2,2.83,17.33,11.05,17.39,22.67.05,9.8.07,19.6-.02,29.39-.03,2.97.58,5.08,3.4,6.89,5.73,3.67,7.26,8.34,5.35,14.83-1.93,6.56-4.07,13.06-6.21,19.55-5.62,16.99-15.05,24.62-32.89,25.32-14.21.56-28.46.03-42.7.2-6.2.07-4.53-3.84-3.94-7.14,4.63-25.8-1.69-48.66-18.36-68.76-28.64-34.55-83.16-38.02-116.08-7.4-18.27,16.98-28.06,37.79-28.07,62.84,0,5.12,1.11,10.27,2.03,15.34.65,3.61-.35,5.32-4.15,5.09-1.66-.1-3.33,0-4.99,0-99.82,0-199.65,0-299.47,0-1.29,0-2.59.02-3.88,0-6.29-.13-6.56-.48-5.51-6.76,8.01-47.91-22.5-90.06-70.23-97.02-33.43-4.88-70.26,15.95-84.34,47.15-7.4,16.41-9.83,33.21-6.18,50.79.88,4.23-.27,5.99-4.5,5.84-.55-.02-1.12-.06-1.66.03-14.16,2.21-25.04-2-33.54-14.3-6.14-8.89-14.44-16.29-21.72-24.4-8-8.91-11.94-19.31-11.8-31.37.17-14.42.12-28.84,0-43.26-.05-5.63.84-11.02,2.6-16.33,4.06-12.28,8.07-24.58,12.08-36.88.7-2.16,1.46-4.1,3.99-4.88,2.27-.7,3.26-2.93,4.53-4.71,12.25-17.15,24.51-34.28,36.64-51.51,11.97-16.99,28.34-25.51,49.02-25.54,52.5-.09,105-.03,157.5-.03Zm-121.05,81.67c2.59.15,4.03.32,5.47.32,56.74.01,113.47.01,170.21,0,.92,0,1.85-.04,2.77-.04,2.6,0,3.66-1.18,3.25-3.84-2.79-17.87-5.6-35.74-8.24-53.64-.51-3.45-2.41-4.03-5.35-4.03-40.66.04-81.32.05-121.97-.02-3.34,0-5.45,1.22-7.26,4-4.22,6.51-8.75,12.81-13.12,19.23-8.4,12.36-16.77,24.73-25.77,38Zm386.29.33c-1.02-1.14-1.22-1.48-1.51-1.67-30.82-19.34-61.66-38.66-92.46-58.03-2.32-1.46-4.74-1.84-7.38-1.84-28.45.02-56.9.1-85.35-.07-5.29-.03-6.05,1.81-5.23,6.66,2.68,15.83,5.01,31.72,7.15,47.63.7,5.24,2.37,7.48,8.27,7.46,57.09-.24,114.17-.14,171.26-.14,1.45,0,2.9,0,5.25,0Zm-448.83,0c10.34,0,20.69-.19,31.02.09,4.53.12,7.53-1.25,10.11-5.1,11.69-17.51,23.63-34.84,35.46-52.25.7-1.02,2.13-2.01,1.42-3.34-.84-1.58-2.66-.89-4.05-.89-18.1-.04-36.21-.5-54.29.18-8.79.33-16.93,4.53-22.3,11.69-11.07,14.77-21.49,30.02-32.15,45.1-.79,1.12-2.55,2.21-1.52,3.78.9,1.36,2.73.72,4.15.72,10.71.04,21.42.02,32.13.03Z"/><path class="cls-1" d="m154.35,436.51c34.39.07,61.06,27.22,60.95,62.04-.1,33.46-27.67,60.66-61.46,60.61-34.6-.05-61.26-27.26-61.16-62.43.1-33.5,27.53-60.29,61.66-60.22Z"/><path class="cls-1" d="m632.51,559.16c-33.8,0-61.59-27.66-61.59-61.3,0-34.08,27.6-61.2,61.94-61.41,30.27-.19,61.17,23.35,61.1,61.5-.07,37.03-29.93,61.41-61.45,61.22Z"/></svg>